<svg width="20" height="20" viewBox="0 0 20 20" fill="none" xmlns="http://www.w3.org/2000/svg">
<path d="M10 2C8.41775 2 6.87103 2.46919 5.55544 3.34824C4.23985 4.22729 3.21447 5.47672 2.60897 6.93853C2.00347 8.40034 1.84504 10.0089 2.15372 11.5607C2.4624 13.1126 3.22433 14.538 4.34315 15.6569C5.46197 16.7757 6.88743 17.5376 8.43928 17.8463C9.99113 18.155 11.5997 17.9965 13.0615 17.391C14.5233 16.7855 15.7727 15.7602 16.6518 14.4446C17.5308 13.129 18 11.5822 18 10C18 7.87827 17.1571 5.84344 15.6569 4.34315C14.1566 2.84285 12.1217 2 10 2ZM13.4233 12.3949C13.4927 12.462 13.5481 12.5422 13.5863 12.631C13.6244 12.7197 13.6444 12.8151 13.6453 12.9117C13.6461 13.0083 13.6277 13.104 13.5911 13.1934C13.5546 13.2828 13.5006 13.364 13.4323 13.4323C13.364 13.5006 13.2828 13.5546 13.1934 13.5911C13.104 13.6277 13.0083 13.6461 12.9117 13.6453C12.8151 13.6444 12.7197 13.6244 12.631 13.5863C12.5423 13.5481 12.462 13.4927 12.3949 13.4233L10 11.0284L7.60509 13.4233C7.538 13.4927 7.45775 13.5481 7.36902 13.5863C7.28029 13.6244 7.18486 13.6444 7.08829 13.6453C6.99173 13.6461 6.89596 13.6277 6.80658 13.5911C6.7172 13.5546 6.636 13.5006 6.56772 13.4323C6.49943 13.364 6.44543 13.2828 6.40886 13.1934C6.37229 13.104 6.35389 13.0083 6.35473 12.9117C6.35557 12.8151 6.37563 12.7197 6.41375 12.631C6.45186 12.5422 6.50727 12.462 6.57673 12.3949L8.97164 10L6.57673 7.60509C6.50727 7.538 6.45186 7.45775 6.41375 7.36902C6.37563 7.28029 6.35557 7.18486 6.35473 7.08829C6.35389 6.99172 6.37229 6.89596 6.40886 6.80658C6.44543 6.7172 6.49943 6.636 6.56772 6.56771C6.636 6.49943 6.7172 6.44542 6.80658 6.40886C6.89596 6.37229 6.99173 6.35389 7.08829 6.35473C7.18486 6.35557 7.28029 6.37563 7.36902 6.41374C7.45775 6.45186 7.538 6.50727 7.60509 6.57673L10 8.97164L12.3949 6.57673C12.462 6.50727 12.5423 6.45186 12.631 6.41374C12.7197 6.37563 12.8151 6.35557 12.9117 6.35473C13.0083 6.35389 13.104 6.37229 13.1934 6.40886C13.2828 6.44542 13.364 6.49943 13.4323 6.56771C13.5006 6.636 13.5546 6.7172 13.5911 6.80658C13.6277 6.89596 13.6461 6.99172 13.6453 7.08829C13.6444 7.18486 13.6244 7.28029 13.5863 7.36902C13.5481 7.45775 13.4927 7.538 13.4233 7.60509L11.0284 10L13.4233 12.3949Z" fill="#C8C8C8"/>
</svg>
