<svg width="18" height="16" viewBox="0 0 18 16" fill="none" xmlns="http://www.w3.org/2000/svg">
<path d="M9.00098 1.55655C9.0758 1.46723 9.15704 1.37779 9.24513 1.2897C10.0698 0.465082 11.4092 -0.148808 13.3698 0.341344C15.3259 0.83037 16.8102 2.30433 17.3061 4.16427C17.8082 6.04758 17.2746 8.22117 15.4234 10.0724C13.477 12.0187 11.8156 13.681 10.77 14.7272C9.79381 15.7041 8.21268 15.7045 7.23601 14.728L2.57971 10.0724C0.727771 8.22079 0.194075 6.04715 0.696426 4.16384C1.19252 2.304 2.67705 0.830366 4.6326 0.341355C6.59286 -0.148836 7.93225 0.465129 8.75683 1.2897C8.84492 1.37779 8.92616 1.46723 9.00098 1.55655Z" fill="#FF0000"/>
</svg>
