<svg width="32" height="28" viewBox="0 0 32 28" fill="none" xmlns="http://www.w3.org/2000/svg">
<path d="M15.9366 0.0972366C15.8827 0.151878 15.7076 0.306702 15.5526 0.440273C14.4615 1.37831 12.9426 2.68671 12.5755 3.00546C12.3364 3.21493 11.8884 3.59743 11.582 3.85547C11.2789 4.1135 10.8545 4.47779 10.639 4.65993C10.4268 4.84511 10.1001 5.1244 9.91489 5.28226C9.72966 5.44012 9.56463 5.5828 9.54442 5.59797C9.51075 5.63137 8.36232 6.61798 7.86051 7.04298C7.71233 7.16744 7.36544 7.47102 7.08591 7.71388C6.80975 7.95673 6.48307 8.23602 6.36519 8.3362C5.94758 8.68227 5.68489 8.90692 4.9305 9.56263C4.70822 9.75389 4.43543 9.98764 4.32429 10.0787C4.21315 10.1698 3.95383 10.3884 3.75176 10.5644C3.54632 10.7405 3.26006 10.9864 3.11187 11.1109C2.72794 11.4326 2.23624 11.8546 1.73106 12.2948C1.22926 12.7289 0.717347 13.1691 0.293001 13.5303L0 13.7793L0.528749 14.2468C0.818382 14.5018 1.3606 14.9784 1.73106 15.3002C2.10152 15.625 2.87613 16.308 3.44866 16.818C4.02455 17.328 5.10563 18.2843 5.85665 18.943C7.2543 20.1695 8.35895 21.15 11.427 23.8943C12.3936 24.7534 13.7273 25.9465 14.3941 26.5415L15.6065 27.6191L15.8254 27.4188C16.206 27.0697 17.4925 25.9404 18.3513 25.1966C19.3347 24.3466 20.2272 23.5634 21.9044 22.0698C23.3121 20.8191 26.0333 18.4148 26.7709 17.7743C27.0403 17.5436 27.5926 17.0578 28.0001 16.6966C28.4076 16.3353 29.1115 15.713 29.5662 15.3123C30.7112 14.3014 31.2164 13.8612 31.3309 13.7762L31.4286 13.7003L30.5731 12.9262C30.1016 12.5012 29.3102 11.7909 28.8084 11.3507C28.31 10.9105 26.3398 9.15585 24.4302 7.4528C20.6414 4.071 19.4155 2.98118 17.5262 1.30849C16.8425 0.701345 16.2296 0.157949 16.1689 0.103308C16.1083 0.0456276 16.0544 9.34601e-05 16.0477 9.34601e-05C16.041 9.34601e-05 15.9904 0.0456276 15.9366 0.0972366ZM16.7617 1.49671C17.1254 1.81849 18.1896 2.75653 19.1259 3.58225C20.0622 4.40797 21.5406 5.72244 22.4095 6.50262C23.2818 7.2828 25.4305 9.21049 27.1885 10.786C28.9465 12.3585 30.3778 13.6639 30.3711 13.6821C30.3643 13.7034 29.8928 14.1253 29.3237 14.6232C27.3703 16.3323 26.1141 17.4373 25.3901 18.0778C24.9927 18.43 24.0665 19.2436 23.3357 19.8841C22.6049 20.5246 21.544 21.4627 20.9782 21.9636C19.7119 23.0898 17.9977 24.5925 17.1389 25.3332C16.9065 25.5336 16.472 25.9131 16.1723 26.1802L15.6267 26.6629L15.4482 26.5263C15.1114 26.2652 14.155 25.4243 11.6662 23.2082C10.2955 21.9879 8.74962 20.6157 8.23097 20.1573C7.71233 19.6989 6.83332 18.9187 6.27763 18.427C5.72194 17.9352 5.06185 17.3523 4.81263 17.1368C4.14916 16.56 3.00747 15.5521 1.94997 14.608L1.02382 13.7823L1.32692 13.5152C2.27328 12.6864 3.3813 11.7393 4.22326 11.035C4.51963 10.7891 4.87662 10.4885 5.0147 10.3701C5.74215 9.74781 6.49654 9.10728 7.22399 8.49709C8.07605 7.78066 8.64858 7.29494 10.1675 5.99566C10.676 5.55851 11.3967 4.94529 11.7672 4.62958C12.1377 4.3169 12.599 3.91922 12.7944 3.75225C13.1615 3.43046 13.8148 2.86885 14.3941 2.36796C14.5793 2.2101 14.9666 1.88224 15.2529 1.63939C15.5392 1.39956 15.8423 1.13849 15.9265 1.05956C16.0107 0.980633 16.0814 0.913847 16.0881 0.913847C16.0949 0.91081 16.398 1.17492 16.7617 1.49671Z" fill="white"/>
<path d="M15.9233 2.37645C15.7684 2.50091 15.5326 2.70431 15.4013 2.82877C15.2666 2.9502 15.0241 3.16574 14.8624 3.30842C14.6974 3.4511 14.1821 3.89431 13.7207 4.29503C13.256 4.69575 12.7036 5.17235 12.4915 5.35753C12.2793 5.53968 11.8617 5.90396 11.5653 6.162C10.5146 7.07879 10.1138 7.4279 9.76353 7.7254C9.0765 8.3113 7.95838 9.27666 7.57444 9.61059C7.0558 10.0629 6.99181 10.1115 6.93119 10.0751C6.76953 9.98398 6.5641 10.0751 6.17006 10.409C6.02524 10.5335 5.48302 10.9979 4.96438 11.4411C4.04833 12.2244 3.20974 12.9529 2.82917 13.299C2.72477 13.3901 2.55301 13.5358 2.44524 13.6238L2.24991 13.7786L3.35456 14.7592C6.12628 17.2181 6.46643 17.5156 6.51358 17.5156C6.61798 17.5156 6.70218 17.4428 8.23117 16.104C8.88116 15.5333 9.77027 14.7561 10.2081 14.3706C10.6493 13.9881 11.0096 13.6663 11.0096 13.6511C11.0096 13.639 10.2485 12.9377 9.31898 12.0938C8.38609 11.2499 7.62159 10.5486 7.61486 10.5365C7.60812 10.5183 9.3796 8.96701 9.63555 8.76666C9.6726 8.73934 10.0666 8.3963 10.5146 8.00772C10.9625 7.61915 11.535 7.12129 11.7842 6.90576C12.0334 6.69022 12.6262 6.18022 13.0977 5.77039C13.5725 5.36057 14.4549 4.59557 15.0578 4.07342C15.664 3.54824 16.1658 3.09895 16.1792 3.07467C16.1927 3.03824 16.3106 3.12627 16.6272 3.40252C17.0481 3.77288 17.5264 4.19485 18.7388 5.25128C20.7864 7.03933 24.2789 10.2238 24.2789 10.3027C24.2789 10.324 24.2317 10.3726 24.1745 10.409C24.0094 10.5183 22.4131 11.9086 21.4398 12.789L20.5709 13.5752L20.6281 13.6542C20.6888 13.7392 24.1408 16.8599 24.5921 17.2363C24.7335 17.3578 24.8682 17.4549 24.8884 17.4549C24.9087 17.4549 25.4778 16.9662 26.1581 16.3681C26.8384 15.7701 27.7915 14.9353 28.2798 14.5103C28.7648 14.0853 29.1589 13.724 29.1555 13.7058C29.1454 13.6754 27.8589 12.5219 25.5317 10.4576C25.2286 10.1904 23.9185 9.01559 22.6185 7.84379C20.709 6.12557 17.0953 2.91074 16.9202 2.77717C16.9 2.75895 16.7282 2.61324 16.543 2.44627L16.2062 2.14877L15.9233 2.37645ZM26.4949 12.2304C27.4076 13.0501 28.1519 13.7301 28.1519 13.7453C28.1519 13.7604 28.071 13.8333 27.9767 13.9061C27.6299 14.1672 26.6768 14.9869 25.7843 15.7853L24.8851 16.5928L24.7908 16.5047C24.7403 16.4562 24.0061 15.8095 23.1608 15.0658C22.3154 14.3251 21.6115 13.6876 21.5981 13.6511C21.5779 13.5965 21.7058 13.472 22.4973 12.7829C23.0058 12.3397 23.7299 11.6992 24.1105 11.3622C24.491 11.0222 24.8076 10.746 24.8177 10.746C24.8278 10.746 25.5822 11.4138 26.4949 12.2304ZM8.86432 12.622C9.47053 13.1715 9.9656 13.636 9.9656 13.6542C9.9656 13.6754 9.84099 13.7969 9.68944 13.9244C9.16069 14.3736 8.53091 14.9201 7.79335 15.5728C7.38585 15.934 6.93456 16.3287 6.79311 16.4531L6.53042 16.6747L5.7154 15.9583C5.26411 15.5637 4.5333 14.9201 4.08874 14.5285L3.28046 13.8181L3.44886 13.6603C3.54315 13.5722 3.99781 13.1806 4.4592 12.786C4.92396 12.3944 5.63121 11.7781 6.03198 11.4199L6.7628 10.7672L7.26124 11.1952C7.53403 11.429 8.25475 12.0726 8.86432 12.622Z" fill="white"/>
<path d="M15.914 9.47464C16.1262 9.65982 16.4596 9.94821 16.6549 10.1182L17.0085 10.4279L15.9477 11.3841C15.3684 11.9123 14.8834 12.3343 14.8733 12.3282C14.8666 12.3191 14.8565 11.4661 14.8565 10.4309L14.8531 8.54874L15.1899 8.84624C15.3751 9.01017 15.7018 9.2925 15.914 9.47464ZM15.4526 13.5941C15.8601 13.9584 17.5507 15.5309 17.5676 15.5613C17.5743 15.5704 16.958 16.135 16.2036 16.8181L14.8262 18.0566L14.8464 15.7707C14.8666 13.6123 14.8767 13.3209 14.9205 13.2511C14.9676 13.1843 15.0653 13.245 15.4526 13.5941Z" fill="white"/>
</svg>
