<svg width="837" height="50" viewBox="0 0 837 50" fill="none" xmlns="http://www.w3.org/2000/svg">
<rect width="837" height="50" rx="8" fill="white" fill-opacity="0.05"/>
<rect x="0.5" y="0.5" width="836" height="49" rx="7.5" stroke="white" stroke-opacity="0.05"/>
<path fill-rule="evenodd" clip-rule="evenodd" d="M27.3224 18.0957C27.5225 17.9751 27.7712 17.968 27.9778 18.0771L39.9778 24.4104C40.1965 24.5259 40.3333 24.7528 40.3333 25C40.3333 25.2473 40.1965 25.4742 39.9778 25.5896L27.9778 31.9229C27.7712 32.032 27.5225 32.0249 27.3224 31.9043C27.1223 31.7836 27 31.5669 27 31.3334V18.6667C27 18.433 27.1223 18.2164 27.3224 18.0957Z" fill="white"/>
<g clip-path="url(#clip0_2474_540)">
<path d="M53.8629 28.5V22.3636H54.7738V23.3224H54.8537C54.9815 22.9949 55.1879 22.7405 55.4729 22.5594C55.7579 22.3756 56.1001 22.2837 56.4996 22.2837C56.9045 22.2837 57.2414 22.3756 57.5104 22.5594C57.782 22.7405 57.9938 22.9949 58.1456 23.3224H58.2095C58.3667 23.0055 58.6024 22.7538 58.9166 22.5674C59.2309 22.3783 59.6078 22.2837 60.0472 22.2837C60.5959 22.2837 61.0447 22.4555 61.3936 22.7991C61.7425 23.14 61.9169 23.6713 61.9169 24.3931V28.5H60.9741V24.3931C60.9741 23.9403 60.8502 23.6167 60.6025 23.4223C60.3548 23.2279 60.0632 23.1307 59.7276 23.1307C59.2962 23.1307 58.9619 23.2612 58.7249 23.5222C58.4878 23.7805 58.3693 24.1081 58.3693 24.505V28.5H57.4105V24.2972C57.4105 23.9483 57.2973 23.6673 57.0709 23.4543C56.8445 23.2385 56.5529 23.1307 56.196 23.1307C55.951 23.1307 55.7219 23.1959 55.5089 23.3264C55.2985 23.4569 55.128 23.6381 54.9975 23.8698C54.8697 24.0988 54.8058 24.3638 54.8058 24.6648V28.5H53.8629ZM64.5083 30.8011C64.3485 30.8011 64.206 30.7878 64.0808 30.7612C63.9556 30.7372 63.8691 30.7132 63.8211 30.6893L64.0608 29.8583C64.2899 29.9169 64.4923 29.9382 64.6681 29.9222C64.8439 29.9062 64.9997 29.8277 65.1355 29.6865C65.274 29.548 65.4005 29.323 65.515 29.0114L65.6908 28.532L63.4216 22.3636H64.4444L66.1382 27.2536H66.2022L67.8961 22.3636H68.9188L66.314 29.3949C66.1968 29.7118 66.0517 29.9742 65.8786 30.1819C65.7055 30.3923 65.5044 30.5481 65.2753 30.6493C65.0489 30.7505 64.7933 30.8011 64.5083 30.8011ZM73.9881 28.5V29.3789H68.8744V28.5H73.9881ZM75.8364 28.5V22.3636H76.7472V23.3224H76.8271C76.955 22.9949 77.1614 22.7405 77.4464 22.5594C77.7313 22.3756 78.0736 22.2837 78.4731 22.2837C78.8779 22.2837 79.2148 22.3756 79.4838 22.5594C79.7555 22.7405 79.9672 22.9949 80.119 23.3224H80.183C80.3401 23.0055 80.5758 22.7538 80.8901 22.5674C81.2044 22.3783 81.5812 22.2837 82.0207 22.2837C82.5693 22.2837 83.0181 22.4555 83.367 22.7991C83.7159 23.14 83.8904 23.6713 83.8904 24.3931V28.5H82.9475V24.3931C82.9475 23.9403 82.8237 23.6167 82.576 23.4223C82.3283 23.2279 82.0367 23.1307 81.7011 23.1307C81.2696 23.1307 80.9354 23.2612 80.6983 23.5222C80.4613 23.7805 80.3428 24.1081 80.3428 24.505V28.5H79.384V24.2972C79.384 23.9483 79.2708 23.6673 79.0444 23.4543C78.818 23.2385 78.5264 23.1307 78.1695 23.1307C77.9244 23.1307 77.6954 23.1959 77.4823 23.3264C77.2719 23.4569 77.1015 23.6381 76.971 23.8698C76.8431 24.0988 76.7792 24.3638 76.7792 24.6648V28.5H75.8364ZM89.9614 25.9911V22.3636H90.9042V28.5H89.9614V27.4613H89.8975C89.7536 27.7729 89.5299 28.0379 89.2263 28.2563C88.9227 28.472 88.5392 28.5799 88.0757 28.5799C87.6922 28.5799 87.3513 28.496 87.053 28.3282C86.7547 28.1578 86.5203 27.9021 86.3499 27.5612C86.1794 27.2176 86.0942 26.7848 86.0942 26.2628V22.3636H87.037V26.1989C87.037 26.6463 87.1622 27.0032 87.4126 27.2695C87.6656 27.5359 87.9878 27.669 88.3794 27.669C88.6137 27.669 88.8521 27.6091 89.0945 27.4893C89.3395 27.3694 89.5446 27.1856 89.7097 26.9379C89.8775 26.6903 89.9614 26.3746 89.9614 25.9911ZM97.4577 23.7379L96.6107 23.9776C96.5575 23.8365 96.4789 23.6993 96.375 23.5661C96.2738 23.4303 96.1353 23.3184 95.9595 23.2306C95.7837 23.1427 95.5587 23.0987 95.2844 23.0987C94.9088 23.0987 94.5959 23.1853 94.3455 23.3584C94.0978 23.5289 93.974 23.7459 93.974 24.0096C93.974 24.244 94.0592 24.4291 94.2297 24.5649C94.4001 24.7007 94.6665 24.8139 95.0287 24.9045L95.9396 25.1282C96.4882 25.2614 96.897 25.4651 97.166 25.7394C97.435 26.0111 97.5695 26.3613 97.5695 26.7901C97.5695 27.1417 97.4683 27.456 97.2659 27.733C97.0662 28.0099 96.7865 28.2283 96.4269 28.3881C96.0674 28.5479 95.6492 28.6278 95.1725 28.6278C94.5466 28.6278 94.0286 28.492 93.6184 28.2203C93.2083 27.9487 92.9486 27.5518 92.8394 27.0298L93.7343 26.8061C93.8195 27.1364 93.9807 27.3841 94.2177 27.5492C94.4574 27.7143 94.7703 27.7969 95.1565 27.7969C95.596 27.7969 95.9449 27.7037 96.2032 27.5172C96.4642 27.3281 96.5947 27.1017 96.5947 26.8381C96.5947 26.625 96.5202 26.4466 96.371 26.3027C96.2219 26.1562 95.9928 26.0471 95.6839 25.9751L94.6611 25.7354C94.0992 25.6023 93.6864 25.3959 93.4227 25.1162C93.1617 24.8339 93.0312 24.481 93.0312 24.0575C93.0312 23.7113 93.1284 23.405 93.3228 23.1387C93.5199 22.8723 93.7876 22.6633 94.1258 22.5115C94.4667 22.3596 94.8529 22.2837 95.2844 22.2837C95.8916 22.2837 96.3684 22.4169 96.7146 22.6832C97.0635 22.9496 97.3112 23.3011 97.4577 23.7379ZM99.4688 28.5V22.3636H100.412V28.5H99.4688ZM99.9482 21.3409C99.7644 21.3409 99.6059 21.2783 99.4728 21.1531C99.3422 21.028 99.277 20.8775 99.277 20.7017C99.277 20.5259 99.3422 20.3754 99.4728 20.2503C99.6059 20.1251 99.7644 20.0625 99.9482 20.0625C100.132 20.0625 100.289 20.1251 100.42 20.2503C100.553 20.3754 100.619 20.5259 100.619 20.7017C100.619 20.8775 100.553 21.028 100.42 21.1531C100.289 21.2783 100.132 21.3409 99.9482 21.3409ZM105.111 28.6278C104.536 28.6278 104.041 28.492 103.625 28.2203C103.21 27.9487 102.89 27.5745 102.666 27.0977C102.443 26.621 102.331 26.0763 102.331 25.4638C102.331 24.8406 102.445 24.2906 102.674 23.8138C102.906 23.3344 103.228 22.9602 103.641 22.6912C104.057 22.4196 104.541 22.2837 105.095 22.2837C105.527 22.2837 105.916 22.3636 106.262 22.5234C106.608 22.6832 106.892 22.907 107.113 23.1946C107.334 23.4822 107.471 23.8178 107.524 24.2013H106.582C106.51 23.9217 106.35 23.674 106.102 23.4583C105.857 23.2399 105.527 23.1307 105.111 23.1307C104.744 23.1307 104.422 23.2266 104.145 23.4183C103.87 23.6074 103.656 23.8751 103.501 24.2213C103.35 24.5649 103.274 24.9684 103.274 25.4318C103.274 25.9059 103.348 26.3187 103.497 26.6703C103.649 27.0218 103.862 27.2948 104.137 27.4893C104.414 27.6837 104.738 27.7809 105.111 27.7809C105.356 27.7809 105.579 27.7383 105.779 27.6531C105.978 27.5678 106.147 27.4453 106.286 27.2855C106.424 27.1257 106.523 26.9339 106.582 26.7102H107.524C107.471 27.0724 107.339 27.3987 107.129 27.689C106.921 27.9767 106.645 28.2057 106.302 28.3762C105.961 28.5439 105.564 28.6278 105.111 28.6278ZM113.617 28.5V29.3789H108.504V28.5H113.617ZM117.618 22.3636V23.1626H114.438V22.3636H117.618ZM115.365 20.8935H116.308V26.7422C116.308 27.0085 116.346 27.2083 116.423 27.3414C116.503 27.4719 116.605 27.5598 116.727 27.6051C116.852 27.6477 116.984 27.669 117.123 27.669C117.226 27.669 117.312 27.6637 117.378 27.6531C117.445 27.6397 117.498 27.6291 117.538 27.6211L117.73 28.468C117.666 28.492 117.577 28.516 117.462 28.54C117.348 28.5666 117.202 28.5799 117.027 28.5799C116.76 28.5799 116.499 28.5226 116.244 28.4081C115.991 28.2936 115.78 28.1191 115.612 27.8848C115.447 27.6504 115.365 27.3548 115.365 26.9979V20.8935ZM119.516 28.5V22.3636H120.427V23.2905H120.491C120.603 22.9869 120.805 22.7405 121.098 22.5514C121.391 22.3623 121.721 22.2678 122.089 22.2678C122.158 22.2678 122.245 22.2691 122.349 22.2718C122.453 22.2744 122.531 22.2784 122.584 22.2837V23.2425C122.552 23.2346 122.479 23.2226 122.365 23.2066C122.253 23.1879 122.134 23.1786 122.009 23.1786C121.711 23.1786 121.444 23.2412 121.21 23.3664C120.978 23.4889 120.795 23.6594 120.659 23.8778C120.526 24.0935 120.459 24.3398 120.459 24.6168V28.5H119.516ZM125.988 28.6438C125.599 28.6438 125.246 28.5706 124.929 28.4241C124.612 28.2749 124.36 28.0605 124.174 27.7809C123.988 27.4986 123.894 27.1577 123.894 26.7582C123.894 26.4066 123.964 26.1216 124.102 25.9032C124.241 25.6822 124.426 25.5091 124.657 25.3839C124.889 25.2587 125.145 25.1655 125.424 25.1042C125.707 25.0403 125.99 24.9897 126.275 24.9524C126.648 24.9045 126.951 24.8685 127.182 24.8445C127.417 24.8179 127.587 24.774 127.694 24.7127C127.803 24.6515 127.857 24.5449 127.857 24.3931V24.3612C127.857 23.967 127.75 23.6607 127.534 23.4423C127.321 23.2239 126.997 23.1147 126.563 23.1147C126.113 23.1147 125.76 23.2132 125.504 23.4103C125.249 23.6074 125.069 23.8178 124.965 24.0415L124.07 23.7219C124.23 23.3491 124.443 23.0588 124.709 22.851C124.978 22.6406 125.271 22.4941 125.588 22.4116C125.908 22.3263 126.222 22.2837 126.531 22.2837C126.728 22.2837 126.955 22.3077 127.21 22.3556C127.469 22.4009 127.718 22.4955 127.957 22.6393C128.2 22.7831 128.401 23.0002 128.561 23.2905C128.72 23.5808 128.8 23.9696 128.8 24.457V28.5H127.857V27.669H127.809C127.746 27.8022 127.639 27.9447 127.49 28.0965C127.341 28.2483 127.142 28.3775 126.895 28.484C126.647 28.5906 126.345 28.6438 125.988 28.6438ZM126.132 27.7969C126.504 27.7969 126.819 27.7236 127.074 27.5771C127.333 27.4307 127.527 27.2416 127.658 27.0099C127.791 26.7781 127.857 26.5344 127.857 26.2788V25.4158C127.817 25.4638 127.73 25.5077 127.594 25.5477C127.461 25.585 127.306 25.6183 127.13 25.6475C126.957 25.6742 126.788 25.6982 126.623 25.7195C126.46 25.7381 126.329 25.7541 126.227 25.7674C125.982 25.7994 125.753 25.8513 125.54 25.9232C125.33 25.9925 125.159 26.0977 125.029 26.2388C124.901 26.3773 124.837 26.5664 124.837 26.8061C124.837 27.1337 124.958 27.3814 125.201 27.5492C125.446 27.7143 125.756 27.7969 126.132 27.7969ZM133.494 28.6278C132.919 28.6278 132.423 28.492 132.008 28.2203C131.592 27.9487 131.273 27.5745 131.049 27.0977C130.825 26.621 130.713 26.0763 130.713 25.4638C130.713 24.8406 130.828 24.2906 131.057 23.8138C131.289 23.3344 131.611 22.9602 132.024 22.6912C132.439 22.4196 132.924 22.2837 133.478 22.2837C133.909 22.2837 134.298 22.3636 134.645 22.5234C134.991 22.6832 135.274 22.907 135.496 23.1946C135.717 23.4822 135.854 23.8178 135.907 24.2013H134.964C134.892 23.9217 134.732 23.674 134.485 23.4583C134.24 23.2399 133.909 23.1307 133.494 23.1307C133.126 23.1307 132.804 23.2266 132.527 23.4183C132.253 23.6074 132.038 23.8751 131.884 24.2213C131.732 24.5649 131.656 24.9684 131.656 25.4318C131.656 25.9059 131.731 26.3187 131.88 26.6703C132.032 27.0218 132.245 27.2948 132.519 27.4893C132.796 27.6837 133.121 27.7809 133.494 27.7809C133.739 27.7809 133.961 27.7383 134.161 27.6531C134.361 27.5678 134.53 27.4453 134.669 27.2855C134.807 27.1257 134.906 26.9339 134.964 26.7102H135.907C135.854 27.0724 135.722 27.3987 135.511 27.689C135.304 27.9767 135.028 28.2057 134.685 28.3762C134.344 28.5439 133.947 28.6278 133.494 28.6278ZM138.644 26.2628L138.628 25.0962H138.82L141.505 22.3636H142.671L139.811 25.256H139.731L138.644 26.2628ZM137.765 28.5V20.3182H138.708V28.5H137.765ZM141.664 28.5L139.267 25.4638L139.939 24.8086L142.863 28.5H141.664Z" fill="white"/>
</g>
<path d="M505.023 21.0226L512.978 28.9776M512.978 21.0226L505.023 28.9776" stroke="white" stroke-width="1.25" stroke-linecap="round" stroke-linejoin="round"/>
<path d="M171.078 24.9951V25.005" stroke="white" stroke-width="1.2" stroke-linecap="round"/>
<path d="M178.766 24.9958V25.0041" stroke="white" stroke-width="1.2" stroke-linecap="round"/>
<path d="M186.453 16.025V33.9751" stroke="white" stroke-width="1.2" stroke-linecap="round"/>
<path d="M194.141 19.329V30.6709" stroke="white" stroke-width="1.2" stroke-linecap="round"/>
<path d="M201.828 20.8276V29.1723" stroke="white" stroke-width="1.2" stroke-linecap="round"/>
<path d="M209.516 19.6897V30.3103" stroke="white" stroke-width="1.2" stroke-linecap="round"/>
<path d="M217.203 18.5977V31.4024" stroke="white" stroke-width="1.2" stroke-linecap="round"/>
<path d="M224.891 20.5707V29.4294" stroke="white" stroke-width="1.2" stroke-linecap="round"/>
<path d="M232.578 20.5717V29.4283" stroke="white" stroke-width="1.2" stroke-linecap="round"/>
<path d="M240.266 24.0538V25.9461" stroke="white" stroke-width="1.2" stroke-linecap="round"/>
<path d="M247.953 18.0325V31.9675" stroke="white" stroke-width="1.2" stroke-linecap="round"/>
<path d="M255.641 22.6772V27.3228" stroke="white" stroke-width="1.2" stroke-linecap="round"/>
<path d="M263.328 22.6998V27.3001" stroke="white" stroke-width="1.2" stroke-linecap="round"/>
<path d="M271.016 20.7595V29.2405" stroke="white" stroke-width="1.2" stroke-linecap="round"/>
<path d="M278.703 18.3457V31.6542" stroke="white" stroke-width="1.2" stroke-linecap="round"/>
<path d="M286.391 17.1354V32.8646" stroke="white" stroke-width="1.2" stroke-linecap="round"/>
<path d="M294.078 20.541V29.4591" stroke="white" stroke-width="1.2" stroke-linecap="round"/>
<path d="M301.766 19.641V30.359" stroke="white" stroke-width="1.2" stroke-linecap="round"/>
<path d="M309.453 19.6375V30.3626" stroke="white" stroke-width="1.2" stroke-linecap="round"/>
<path d="M317.141 17.7974V32.2026" stroke="white" stroke-width="1.2" stroke-linecap="round"/>
<path d="M324.828 17.7225V32.2774" stroke="white" stroke-width="1.2" stroke-linecap="round"/>
<path d="M332.516 19.907V30.093" stroke="white" stroke-width="1.2" stroke-linecap="round"/>
<path d="M340.203 19.7496V30.2505" stroke="white" stroke-width="1.2" stroke-linecap="round"/>
<path d="M347.891 23.4022V26.5978" stroke="white" stroke-width="1.2" stroke-linecap="round"/>
<path d="M355.578 24.8846V25.1154" stroke="white" stroke-width="1.2" stroke-linecap="round"/>
<path d="M363.266 14.556V35.444" stroke="white" stroke-width="1.2" stroke-linecap="round"/>
<path d="M370.953 18.356V31.6442" stroke="white" stroke-width="1.2" stroke-linecap="round"/>
<path d="M378.641 16.9606V33.0395" stroke="white" stroke-width="1.2" stroke-linecap="round"/>
<path d="M386.328 22.5648V27.4352" stroke="white" stroke-width="1.2" stroke-linecap="round"/>
<path d="M394.016 22.9998V27.0001" stroke="white" stroke-width="1.2" stroke-linecap="round"/>
<path d="M401.703 23.6173V26.3828" stroke="white" stroke-width="1.2" stroke-linecap="round"/>
<path d="M409.391 20.5721V29.4277" stroke="white" stroke-width="1.2" stroke-linecap="round"/>
<path d="M417.078 23.0583V26.9417" stroke="white" stroke-width="1.2" stroke-linecap="round"/>
<path d="M424.766 21.1152V28.8848" stroke="white" stroke-width="1.2" stroke-linecap="round"/>
<path d="M432.453 16.2091V33.7909" stroke="white" stroke-width="1.2" stroke-linecap="round"/>
<path d="M440.141 17.0084V32.9916" stroke="white" stroke-width="1.2" stroke-linecap="round"/>
<path d="M447.828 16.4717V33.5283" stroke="white" stroke-width="1.2" stroke-linecap="round"/>
<path d="M455.516 16.1697V33.8304" stroke="white" stroke-width="1.2" stroke-linecap="round"/>
<path d="M463.203 16.2776V33.7223" stroke="white" stroke-width="1.2" stroke-linecap="round"/>
<path d="M470.891 15.2906V34.7093" stroke="white" stroke-width="1.2" stroke-linecap="round"/>
<path d="M478.578 23.9453V26.0546" stroke="white" stroke-width="1.2" stroke-linecap="round"/>
<path d="M486.266 24.8693V25.1307" stroke="white" stroke-width="1.2" stroke-linecap="round"/>
<path d="M493.953 24.9991V25.0008" stroke="white" stroke-width="1.2" stroke-linecap="round"/>
<path d="M501.641 24.9991V25.001" stroke="white" stroke-width="1.2" stroke-linecap="round"/>
<path d="M509.328 24.9989V25.001" stroke="white" stroke-width="1.2" stroke-linecap="round"/>
<path d="M517.016 24.9993V25.0008" stroke="white" stroke-width="1.2" stroke-linecap="round"/>
<path d="M524.703 24.9994V25.0007" stroke="white" stroke-width="1.2" stroke-linecap="round"/>
<path d="M532.391 23.4089V26.591" stroke="white" stroke-width="1.2" stroke-linecap="round"/>
<path d="M540.078 18.3221V31.6778" stroke="white" stroke-width="1.2" stroke-linecap="round"/>
<path d="M547.766 16.6223V33.3778" stroke="white" stroke-width="1.2" stroke-linecap="round"/>
<path d="M555.453 18.5247V31.4754" stroke="white" stroke-width="1.2" stroke-linecap="round"/>
<path d="M563.141 19.924V30.076" stroke="white" stroke-width="1.2" stroke-linecap="round"/>
<path d="M570.828 20.7437V29.2564" stroke="white" stroke-width="1.2" stroke-linecap="round"/>
<path d="M578.516 16.4633V33.5368" stroke="white" stroke-width="1.2" stroke-linecap="round"/>
<path d="M586.203 15.2705V34.7296" stroke="white" stroke-width="1.2" stroke-linecap="round"/>
<path d="M593.891 21.0491V28.9508" stroke="white" stroke-width="1.2" stroke-linecap="round"/>
<path d="M601.578 18.998V31.0019" stroke="white" stroke-width="1.2" stroke-linecap="round"/>
<path d="M609.266 20.1981V29.8018" stroke="white" stroke-width="1.2" stroke-linecap="round"/>
<path d="M616.953 17.6694V32.3307" stroke="white" stroke-width="1.2" stroke-linecap="round"/>
<path d="M624.641 17.2054V32.7947" stroke="white" stroke-width="1.2" stroke-linecap="round"/>
<path d="M632.328 18.0543V31.9456" stroke="white" stroke-width="1.2" stroke-linecap="round"/>
<path d="M640.016 17.7743V32.2256" stroke="white" stroke-width="1.2" stroke-linecap="round"/>
<path d="M647.703 16.1742V33.8259" stroke="white" stroke-width="1.2" stroke-linecap="round"/>
<path d="M655.391 20.9022V29.0977" stroke="white" stroke-width="1.2" stroke-linecap="round"/>
<path d="M663.078 18.343V31.6569" stroke="white" stroke-width="1.2" stroke-linecap="round"/>
<path d="M670.766 19.6414V30.3586" stroke="white" stroke-width="1.2" stroke-linecap="round"/>
<path d="M678.453 18.9453V31.0547" stroke="white" stroke-width="1.2" stroke-linecap="round"/>
<path d="M686.141 19.5502V30.4499" stroke="white" stroke-width="1.2" stroke-linecap="round"/>
<path d="M693.828 19.1462V30.8537" stroke="white" stroke-width="1.2" stroke-linecap="round"/>
<path d="M701.516 19.3727V30.6273" stroke="white" stroke-width="1.2" stroke-linecap="round"/>
<path d="M709.203 17.875V32.1251" stroke="white" stroke-width="1.2" stroke-linecap="round"/>
<path d="M716.891 19.4696V30.5305" stroke="white" stroke-width="1.2" stroke-linecap="round"/>
<path d="M724.578 19.4056V30.5943" stroke="white" stroke-width="1.2" stroke-linecap="round"/>
<path d="M732.266 21.2433V28.7568" stroke="white" stroke-width="1.2" stroke-linecap="round"/>
<path d="M739.953 24.9355V25.0645" stroke="white" stroke-width="1.2" stroke-linecap="round"/>
<path d="M747.641 21.3053V28.6948" stroke="white" stroke-width="1.2" stroke-linecap="round"/>
<path d="M755.328 15.2723V34.7276" stroke="white" stroke-width="1.2" stroke-linecap="round"/>
<path d="M763.016 16.4656V33.5345" stroke="white" stroke-width="1.2" stroke-linecap="round"/>
<path d="M770.703 18.813V31.187" stroke="white" stroke-width="1.2" stroke-linecap="round"/>
<path d="M778.391 18.5338V31.4662" stroke="white" stroke-width="1.2" stroke-linecap="round"/>
<defs>
<clipPath id="clip0_2474_540">
<rect width="120" height="16" fill="white" transform="translate(53 17)"/>
</clipPath>
</defs>
</svg>
