<svg width="181" height="180" viewBox="0 0 181 180" fill="none" xmlns="http://www.w3.org/2000/svg">
<g filter="url(#filter0_bi_2415_242)">
<rect width="180.67" height="179.59" rx="12" fill="url(#paint0_radial_2415_242)"/>
<path opacity="0.4" fill-rule="evenodd" clip-rule="evenodd" d="M102.982 58.9002C102.545 59.5392 102.538 60.365 102.865 61.067C103.528 62.5002 104.163 64.0505 104.82 65.6525C105.003 66.0601 105.338 66.3805 105.753 66.5462C106.168 66.7119 106.631 66.7099 107.045 66.5406C107.458 66.3713 107.79 66.048 107.97 65.6388C108.15 65.2296 108.163 64.7666 108.008 64.3475L107.986 64.2957C107.027 61.949 106.024 59.492 104.863 57.3657C104.845 57.3308 104.821 57.2999 104.791 57.275C104.761 57.2501 104.726 57.2317 104.689 57.2211C104.651 57.2105 104.612 57.2079 104.573 57.2134C104.535 57.219 104.498 57.2325 104.464 57.2532C104.084 57.5142 103.596 58.0002 102.982 58.9002ZM96.6075 52.1187C97.098 51.5427 96.8302 50.6382 96.0742 50.6382C92.6542 50.6382 90.2625 52.7712 88.5097 55.3407C86.793 57.8607 85.443 61.1592 84.183 64.2372L84.138 64.3475C83.5206 65.8904 82.8687 67.4193 82.1827 68.933C81.8587 69.635 81.8677 70.4607 82.302 71.0997C83.0985 72.2675 84.5835 71.9255 85.1865 70.6497C85.938 69.0545 86.622 67.3782 87.2835 65.7627L87.3285 65.6525C88.6425 62.4417 89.8665 59.4717 91.3582 57.2825C92.3797 55.784 93.4035 54.83 94.515 54.3845C94.8651 54.2554 95.169 54.0251 95.388 53.723C95.7547 53.1852 96.1597 52.643 96.6075 52.1187ZM75.3945 79.3617C76.1482 79.3617 76.4182 78.4572 75.9277 77.8812C75.4777 77.3547 75.0727 76.8125 74.7082 76.277C74.49 75.975 74.1869 75.7448 73.8375 75.6155C72.7237 75.17 71.7 74.216 70.6785 72.7175C69.1867 70.5282 67.9627 67.5582 66.6487 64.3475C66.4757 63.9244 66.1417 63.5874 65.7201 63.4106C65.2986 63.2338 64.8241 63.2317 64.401 63.4047C63.9779 63.5778 63.6409 63.9118 63.4641 64.3334C63.2873 64.7549 63.2852 65.2294 63.4582 65.6525L63.5032 65.765C64.7632 68.8407 66.1132 72.1392 67.83 74.6592C69.5827 77.2287 71.9745 79.3617 75.3945 79.3617Z" fill="#E099FA"/>
<path fill-rule="evenodd" clip-rule="evenodd" d="M92.1863 74.6592C90.438 77.2287 88.0463 79.3617 84.6308 79.3617C81.2153 79.3617 78.8258 77.2287 77.0775 74.6592C75.3608 72.1392 74.013 68.8407 72.7575 65.7627L72.7125 65.6502C72.5611 65.2318 72.5774 64.7711 72.758 64.3644C72.9385 63.9578 73.2694 63.6367 73.6813 63.4684C74.0932 63.3001 74.5542 63.2976 74.9678 63.4615C75.3815 63.6253 75.7158 63.9428 75.9008 64.3475C77.2125 67.5582 78.4365 70.5305 79.926 72.7175C81.402 74.8887 82.8848 75.9125 84.6308 75.9125C86.3768 75.9125 87.8595 74.8887 89.3378 72.7175C90.8273 70.5305 92.049 67.5582 93.3608 64.3475L93.4058 64.2372C94.6635 61.1592 96.009 57.863 97.7258 55.3407C99.474 52.7712 101.866 50.6382 105.281 50.6382C109.448 50.6382 112.076 53.7927 113.937 57.1407C115.148 59.3232 116.187 61.8657 117.177 64.2912L117.2 64.3475C117.285 64.557 117.329 64.7813 117.328 65.0076C117.327 65.234 117.281 65.4579 117.194 65.6666C117.106 65.8753 116.978 66.0648 116.818 66.2241C116.657 66.3834 116.466 66.5096 116.257 66.5952C116.047 66.6809 115.823 66.7245 115.597 66.7235C115.37 66.7225 115.146 66.6769 114.938 66.5894C114.729 66.5019 114.539 66.3741 114.38 66.2133C114.221 66.0525 114.095 65.862 114.009 65.6525C112.994 63.1617 112.025 60.7992 110.924 58.8147C109.156 55.631 107.41 54.0852 105.281 54.0852C103.535 54.0852 102.052 55.1112 100.574 57.2802C99.0847 59.4695 97.863 62.4417 96.5513 65.6502L96.5063 65.7627C95.2485 68.8407 93.903 72.137 92.1863 74.6592Z" fill="#E099FA"/>
<path d="M62.9294 117.75V109.159H65.8322C66.5034 109.159 67.0543 109.274 67.485 109.503C67.9156 109.73 68.2344 110.041 68.4414 110.438C68.6483 110.836 68.7518 111.287 68.7518 111.793C68.7518 112.3 68.6483 112.748 68.4414 113.14C68.2344 113.531 67.917 113.839 67.4892 114.063C67.0613 114.284 66.5146 114.394 65.849 114.394H63.4999V113.455H65.8154C66.2741 113.455 66.6432 113.387 66.9229 113.253C67.2053 113.119 67.4095 112.929 67.5353 112.683C67.6639 112.434 67.7283 112.137 67.7283 111.793C67.7283 111.449 67.6639 111.149 67.5353 110.892C67.4067 110.634 67.2011 110.436 66.9187 110.296C66.6362 110.153 66.2629 110.082 65.7987 110.082H63.9697V117.75H62.9294ZM66.9732 113.891L69.0874 117.75H67.8793L65.7987 113.891H66.9732ZM73.4633 117.884C72.8424 117.884 72.3069 117.747 71.8567 117.473C71.4092 117.196 71.0639 116.81 70.8206 116.315C70.5801 115.818 70.4598 115.239 70.4598 114.579C70.4598 113.919 70.5801 113.337 70.8206 112.834C71.0639 112.328 71.4022 111.933 71.8357 111.651C72.272 111.366 72.7809 111.223 73.3626 111.223C73.6982 111.223 74.0296 111.279 74.3568 111.391C74.684 111.503 74.9818 111.684 75.2503 111.936C75.5187 112.185 75.7327 112.515 75.8921 112.926C76.0515 113.337 76.1312 113.843 76.1312 114.445V114.864H71.1645V114.008H75.1244C75.1244 113.645 75.0517 113.32 74.9063 113.035C74.7637 112.75 74.5595 112.525 74.2938 112.36C74.031 112.195 73.7206 112.112 73.3626 112.112C72.9683 112.112 72.6271 112.21 72.3391 112.406C72.0538 112.599 71.8343 112.85 71.6805 113.161C71.5267 113.471 71.4498 113.804 71.4498 114.159V114.73C71.4498 115.216 71.5337 115.629 71.7015 115.967C71.8721 116.303 72.1084 116.559 72.4104 116.735C72.7124 116.908 73.0634 116.995 73.4633 116.995C73.7234 116.995 73.9583 116.959 74.168 116.886C74.3805 116.81 74.5637 116.699 74.7175 116.55C74.8713 116.399 74.9902 116.212 75.0741 115.988L76.0305 116.257C75.9298 116.581 75.7606 116.866 75.5229 117.112C75.2852 117.356 74.9916 117.546 74.642 117.683C74.2924 117.817 73.8995 117.884 73.4633 117.884ZM80.0131 117.901C79.6048 117.901 79.2343 117.824 78.9015 117.67C78.5687 117.514 78.3044 117.289 78.1087 116.995C77.9129 116.699 77.8151 116.341 77.8151 115.921C77.8151 115.552 77.8878 115.253 78.0332 115.023C78.1786 114.791 78.373 114.61 78.6163 114.478C78.8596 114.347 79.128 114.249 79.4217 114.184C79.7181 114.117 80.0159 114.064 80.3151 114.025C80.7067 113.975 81.0241 113.937 81.2674 113.912C81.5135 113.884 81.6924 113.838 81.8043 113.773C81.919 113.709 81.9763 113.597 81.9763 113.438V113.404C81.9763 112.99 81.863 112.669 81.6365 112.439C81.4128 112.21 81.073 112.095 80.6172 112.095C80.1446 112.095 79.774 112.199 79.5056 112.406C79.2371 112.613 79.0483 112.834 78.9393 113.069L77.9996 112.733C78.1674 112.342 78.3911 112.037 78.6708 111.819C78.9532 111.598 79.2609 111.444 79.5936 111.357C79.9292 111.268 80.2592 111.223 80.5836 111.223C80.7906 111.223 81.0283 111.248 81.2967 111.298C81.568 111.346 81.8295 111.445 82.0811 111.596C82.3356 111.747 82.5468 111.975 82.7146 112.28C82.8824 112.585 82.9662 112.993 82.9662 113.505V117.75H81.9763V116.877H81.9259C81.8588 117.017 81.747 117.167 81.5904 117.326C81.4338 117.486 81.2254 117.621 80.9653 117.733C80.7053 117.845 80.3879 117.901 80.0131 117.901ZM80.1641 117.012C80.5556 117.012 80.8856 116.935 81.1541 116.781C81.4254 116.627 81.6295 116.429 81.7665 116.185C81.9064 115.942 81.9763 115.686 81.9763 115.418V114.512C81.9343 114.562 81.842 114.608 81.6994 114.65C81.5596 114.689 81.3974 114.724 81.2128 114.755C81.0311 114.783 80.8535 114.808 80.6801 114.83C80.5095 114.85 80.3711 114.867 80.2648 114.881C80.0075 114.914 79.767 114.969 79.5433 115.044C79.3224 115.117 79.1434 115.228 79.0064 115.376C78.8721 115.521 78.805 115.72 78.805 115.971C78.805 116.315 78.9323 116.575 79.1868 116.752C79.444 116.925 79.7698 117.012 80.1641 117.012ZM86.2431 109.159V117.75H85.2531V109.159H86.2431ZM92.2277 113.606V114.528H88.4692V113.606H92.2277ZM93.2373 110.082V109.159H99.6805V110.082H96.9791V117.75H95.9387V110.082H93.2373ZM101.632 117.75V111.307H102.622V117.75H101.632ZM102.135 110.233C101.942 110.233 101.776 110.167 101.636 110.036C101.499 109.904 101.43 109.746 101.43 109.562C101.43 109.377 101.499 109.219 101.636 109.088C101.776 108.956 101.942 108.891 102.135 108.891C102.328 108.891 102.493 108.956 102.63 109.088C102.77 109.219 102.84 109.377 102.84 109.562C102.84 109.746 102.77 109.904 102.63 110.036C102.493 110.167 102.328 110.233 102.135 110.233ZM104.915 117.75V111.307H105.871V112.314H105.955C106.09 111.97 106.306 111.703 106.605 111.512C106.905 111.319 107.264 111.223 107.684 111.223C108.109 111.223 108.462 111.319 108.745 111.512C109.03 111.703 109.252 111.97 109.412 112.314H109.479C109.644 111.981 109.891 111.717 110.221 111.521C110.551 111.322 110.947 111.223 111.408 111.223C111.985 111.223 112.456 111.403 112.822 111.764C113.188 112.122 113.372 112.68 113.372 113.438V117.75H112.382V113.438C112.382 112.962 112.252 112.623 111.992 112.418C111.731 112.214 111.425 112.112 111.073 112.112C110.62 112.112 110.269 112.249 110.02 112.523C109.771 112.795 109.647 113.139 109.647 113.555V117.75H108.64V113.337C108.64 112.971 108.521 112.676 108.283 112.452C108.046 112.225 107.739 112.112 107.365 112.112C107.107 112.112 106.867 112.181 106.643 112.318C106.422 112.455 106.243 112.645 106.106 112.888C105.972 113.129 105.905 113.407 105.905 113.723V117.75H104.915ZM118.363 117.884C117.742 117.884 117.207 117.747 116.757 117.473C116.309 117.196 115.964 116.81 115.72 116.315C115.48 115.818 115.36 115.239 115.36 114.579C115.36 113.919 115.48 113.337 115.72 112.834C115.964 112.328 116.302 111.933 116.736 111.651C117.172 111.366 117.681 111.223 118.262 111.223C118.598 111.223 118.929 111.279 119.257 111.391C119.584 111.503 119.882 111.684 120.15 111.936C120.419 112.185 120.633 112.515 120.792 112.926C120.951 113.337 121.031 113.843 121.031 114.445V114.864H116.064V114.008H120.024C120.024 113.645 119.952 113.32 119.806 113.035C119.664 112.75 119.459 112.525 119.194 112.36C118.931 112.195 118.62 112.112 118.262 112.112C117.868 112.112 117.527 112.21 117.239 112.406C116.954 112.599 116.734 112.85 116.58 113.161C116.427 113.471 116.35 113.804 116.35 114.159V114.73C116.35 115.216 116.434 115.629 116.601 115.967C116.772 116.303 117.008 116.559 117.31 116.735C117.612 116.908 117.963 116.995 118.363 116.995C118.623 116.995 118.858 116.959 119.068 116.886C119.28 116.81 119.464 116.699 119.617 116.55C119.771 116.399 119.89 116.212 119.974 115.988L120.93 116.257C120.83 116.581 120.66 116.866 120.423 117.112C120.185 117.356 119.891 117.546 119.542 117.683C119.192 117.817 118.799 117.884 118.363 117.884ZM59.8766 128.844H58.8363C58.7748 128.545 58.6671 128.282 58.5133 128.055C58.3623 127.829 58.1777 127.638 57.9596 127.485C57.7443 127.328 57.5052 127.211 57.2423 127.132C56.9794 127.054 56.7054 127.015 56.4201 127.015C55.9 127.015 55.4288 127.146 55.0065 127.409C54.587 127.672 54.2528 128.059 54.0039 128.571C53.7578 129.083 53.6348 129.711 53.6348 130.455C53.6348 131.198 53.7578 131.826 54.0039 132.338C54.2528 132.85 54.587 133.237 55.0065 133.5C55.4288 133.763 55.9 133.894 56.4201 133.894C56.7054 133.894 56.9794 133.855 57.2423 133.777C57.5052 133.699 57.7443 133.582 57.9596 133.429C58.1777 133.272 58.3623 133.08 58.5133 132.854C58.6671 132.625 58.7748 132.362 58.8363 132.065H59.8766C59.7983 132.504 59.6557 132.897 59.4487 133.244C59.2418 133.591 58.9845 133.886 58.6769 134.129C58.3693 134.37 58.0239 134.553 57.6408 134.679C57.2605 134.805 56.8536 134.867 56.4201 134.867C55.6874 134.867 55.0358 134.688 54.4653 134.331C53.8949 133.973 53.446 133.464 53.1188 132.804C52.7916 132.144 52.628 131.361 52.628 130.455C52.628 129.548 52.7916 128.765 53.1188 128.105C53.446 127.445 53.8949 126.937 54.4653 126.579C55.0358 126.221 55.6874 126.042 56.4201 126.042C56.8536 126.042 57.2605 126.105 57.6408 126.23C58.0239 126.356 58.3693 126.541 58.6769 126.784C58.9845 127.025 59.2418 127.318 59.4487 127.665C59.6557 128.009 59.7983 128.402 59.8766 128.844ZM64.521 134.884C63.9393 134.884 63.4289 134.746 62.9899 134.469C62.5536 134.192 62.2125 133.805 61.9664 133.307C61.7231 132.809 61.6014 132.228 61.6014 131.562C61.6014 130.891 61.7231 130.305 61.9664 129.804C62.2125 129.304 62.5536 128.915 62.9899 128.638C63.4289 128.361 63.9393 128.223 64.521 128.223C65.1027 128.223 65.6116 128.361 66.0479 128.638C66.4869 128.915 66.8281 129.304 67.0714 129.804C67.3175 130.305 67.4405 130.891 67.4405 131.562C67.4405 132.228 67.3175 132.809 67.0714 133.307C66.8281 133.805 66.4869 134.192 66.0479 134.469C65.6116 134.746 65.1027 134.884 64.521 134.884ZM64.521 133.995C64.9628 133.995 65.3264 133.882 65.6116 133.655C65.8969 133.429 66.108 133.131 66.245 132.762C66.3821 132.393 66.4506 131.993 66.4506 131.562C66.4506 131.131 66.3821 130.73 66.245 130.358C66.108 129.986 65.8969 129.686 65.6116 129.456C65.3264 129.227 64.9628 129.112 64.521 129.112C64.0791 129.112 63.7156 129.227 63.4303 129.456C63.1451 129.686 62.934 129.986 62.7969 130.358C62.6599 130.73 62.5914 131.131 62.5914 131.562C62.5914 131.993 62.6599 132.393 62.7969 132.762C62.934 133.131 63.1451 133.429 63.4303 133.655C63.7156 133.882 64.0791 133.995 64.521 133.995ZM70.4217 126.159V134.75H69.4317V126.159H70.4217ZM73.7048 126.159V134.75H72.7149V126.159H73.7048ZM77.8941 134.901C77.4858 134.901 77.1153 134.824 76.7825 134.67C76.4497 134.514 76.1854 134.289 75.9897 133.995C75.7939 133.699 75.696 133.341 75.696 132.921C75.696 132.552 75.7687 132.253 75.9141 132.023C76.0596 131.791 76.2539 131.61 76.4972 131.478C76.7405 131.347 77.009 131.249 77.3026 131.184C77.5991 131.117 77.8969 131.064 78.1961 131.025C78.5876 130.975 78.905 130.937 79.1483 130.912C79.3944 130.884 79.5734 130.838 79.6853 130.773C79.7999 130.709 79.8572 130.597 79.8572 130.438V130.404C79.8572 129.99 79.744 129.669 79.5175 129.439C79.2937 129.21 78.954 129.095 78.4981 129.095C78.0255 129.095 77.655 129.199 77.3865 129.406C77.118 129.613 76.9293 129.834 76.8202 130.069L75.8806 129.733C76.0484 129.342 76.2721 129.037 76.5518 128.819C76.8342 128.598 77.1418 128.444 77.4746 128.357C77.8102 128.268 78.1402 128.223 78.4646 128.223C78.6715 128.223 78.9092 128.248 79.1777 128.298C79.4489 128.346 79.7104 128.445 79.9621 128.596C80.2166 128.747 80.4277 128.975 80.5955 129.28C80.7633 129.585 80.8472 129.993 80.8472 130.505V134.75H79.8572V133.877H79.8069C79.7398 134.017 79.6279 134.167 79.4713 134.326C79.3147 134.486 79.1064 134.621 78.8463 134.733C78.5862 134.845 78.2688 134.901 77.8941 134.901ZM78.0451 134.012C78.4366 134.012 78.7666 133.935 79.0351 133.781C79.3063 133.627 79.5105 133.429 79.6475 133.185C79.7873 132.942 79.8572 132.686 79.8572 132.418V131.512C79.8153 131.562 79.723 131.608 79.5804 131.65C79.4406 131.689 79.2784 131.724 79.0938 131.755C78.912 131.783 78.7344 131.808 78.5611 131.83C78.3905 131.85 78.252 131.867 78.1458 131.881C77.8885 131.914 77.648 131.969 77.4243 132.044C77.2033 132.117 77.0244 132.228 76.8873 132.376C76.7531 132.521 76.686 132.72 76.686 132.971C76.686 133.315 76.8132 133.575 77.0677 133.752C77.325 133.925 77.6508 134.012 78.0451 134.012ZM83.2683 134.75V126.159H84.2583V129.33H84.3422C84.4149 129.218 84.5156 129.076 84.6442 128.902C84.7757 128.726 84.963 128.57 85.2063 128.433C85.4524 128.293 85.7852 128.223 86.2047 128.223C86.7472 128.223 87.2254 128.359 87.6393 128.63C88.0532 128.901 88.3762 129.286 88.6083 129.783C88.8404 130.281 88.9565 130.868 88.9565 131.545C88.9565 132.228 88.8404 132.819 88.6083 133.32C88.3762 133.817 88.0546 134.203 87.6435 134.477C87.2324 134.749 86.7584 134.884 86.2215 134.884C85.8076 134.884 85.4762 134.816 85.2273 134.679C84.9784 134.539 84.7869 134.381 84.6526 134.205C84.5184 134.026 84.4149 133.877 84.3422 133.76H84.2248V134.75H83.2683ZM84.2415 131.528C84.2415 132.015 84.3128 132.444 84.4555 132.816C84.5981 133.185 84.8064 133.475 85.0805 133.685C85.3545 133.891 85.6901 133.995 86.0872 133.995C86.5011 133.995 86.8465 133.886 87.1233 133.668C87.403 133.447 87.6127 133.15 87.7526 132.778C87.8952 132.404 87.9665 131.987 87.9665 131.528C87.9665 131.075 87.8966 130.667 87.7568 130.304C87.6197 129.937 87.4114 129.648 87.1317 129.435C86.8549 129.22 86.5067 129.112 86.0872 129.112C85.6845 129.112 85.3462 129.214 85.0721 129.418C84.798 129.62 84.5911 129.902 84.4513 130.266C84.3114 130.627 84.2415 131.047 84.2415 131.528ZM93.5683 134.884C92.9866 134.884 92.4763 134.746 92.0372 134.469C91.601 134.192 91.2598 133.805 91.0137 133.307C90.7704 132.809 90.6488 132.228 90.6488 131.562C90.6488 130.891 90.7704 130.305 91.0137 129.804C91.2598 129.304 91.601 128.915 92.0372 128.638C92.4763 128.361 92.9866 128.223 93.5683 128.223C94.15 128.223 94.659 128.361 95.0952 128.638C95.5343 128.915 95.8755 129.304 96.1187 129.804C96.3648 130.305 96.4879 130.891 96.4879 131.562C96.4879 132.228 96.3648 132.809 96.1187 133.307C95.8755 133.805 95.5343 134.192 95.0952 134.469C94.659 134.746 94.15 134.884 93.5683 134.884ZM93.5683 133.995C94.0102 133.995 94.3737 133.882 94.659 133.655C94.9442 133.429 95.1553 133.131 95.2924 132.762C95.4294 132.393 95.4979 131.993 95.4979 131.562C95.4979 131.131 95.4294 130.73 95.2924 130.358C95.1553 129.986 94.9442 129.686 94.659 129.456C94.3737 129.227 94.0102 129.112 93.5683 129.112C93.1265 129.112 92.7629 129.227 92.4777 129.456C92.1924 129.686 91.9813 129.986 91.8443 130.358C91.7072 130.73 91.6387 131.131 91.6387 131.562C91.6387 131.993 91.7072 132.393 91.8443 132.762C91.9813 133.131 92.1924 133.429 92.4777 133.655C92.7629 133.882 93.1265 133.995 93.5683 133.995ZM98.4791 134.75V128.307H99.4355V129.28H99.5026C99.62 128.961 99.8326 128.703 100.14 128.504C100.448 128.305 100.795 128.206 101.18 128.206C101.253 128.206 101.344 128.208 101.453 128.21C101.562 128.213 101.645 128.217 101.701 128.223V129.23C101.667 129.221 101.59 129.209 101.47 129.192C101.352 129.172 101.228 129.163 101.097 129.163C100.783 129.163 100.504 129.228 100.258 129.36C100.014 129.488 99.8214 129.667 99.6788 129.897C99.5389 130.123 99.469 130.382 99.469 130.673V134.75H98.4791ZM105.25 134.901C104.842 134.901 104.471 134.824 104.139 134.67C103.806 134.514 103.542 134.289 103.346 133.995C103.15 133.699 103.052 133.341 103.052 132.921C103.052 132.552 103.125 132.253 103.27 132.023C103.416 131.791 103.61 131.61 103.853 131.478C104.097 131.347 104.365 131.249 104.659 131.184C104.955 131.117 105.253 131.064 105.552 131.025C105.944 130.975 106.261 130.937 106.504 130.912C106.751 130.884 106.929 130.838 107.041 130.773C107.156 130.709 107.213 130.597 107.213 130.438V130.404C107.213 129.99 107.1 129.669 106.874 129.439C106.65 129.21 106.31 129.095 105.854 129.095C105.382 129.095 105.011 129.199 104.743 129.406C104.474 129.613 104.285 129.834 104.176 130.069L103.237 129.733C103.404 129.342 103.628 129.037 103.908 128.819C104.19 128.598 104.498 128.444 104.831 128.357C105.166 128.268 105.496 128.223 105.821 128.223C106.028 128.223 106.265 128.248 106.534 128.298C106.805 128.346 107.067 128.445 107.318 128.596C107.573 128.747 107.784 128.975 107.952 129.28C108.119 129.585 108.203 129.993 108.203 130.505V134.75H107.213V133.877H107.163C107.096 134.017 106.984 134.167 106.827 134.326C106.671 134.486 106.462 134.621 106.202 134.733C105.942 134.845 105.625 134.901 105.25 134.901ZM105.401 134.012C105.793 134.012 106.123 133.935 106.391 133.781C106.662 133.627 106.867 133.429 107.004 133.185C107.143 132.942 107.213 132.686 107.213 132.418V131.512C107.171 131.562 107.079 131.608 106.936 131.65C106.797 131.689 106.634 131.724 106.45 131.755C106.268 131.783 106.091 131.808 105.917 131.83C105.747 131.85 105.608 131.867 105.502 131.881C105.245 131.914 105.004 131.969 104.78 132.044C104.559 132.117 104.38 132.228 104.243 132.376C104.109 132.521 104.042 132.72 104.042 132.971C104.042 133.315 104.169 133.575 104.424 133.752C104.681 133.925 105.007 134.012 105.401 134.012ZM113.292 128.307V129.146H109.953V128.307H113.292ZM110.926 126.763H111.916V132.904C111.916 133.184 111.957 133.394 112.038 133.534C112.122 133.671 112.228 133.763 112.357 133.81C112.488 133.855 112.627 133.877 112.772 133.877C112.881 133.877 112.971 133.872 113.041 133.861C113.111 133.847 113.166 133.836 113.208 133.827L113.41 134.716C113.343 134.742 113.249 134.767 113.129 134.792C113.008 134.82 112.856 134.834 112.671 134.834C112.392 134.834 112.118 134.774 111.849 134.654C111.584 134.533 111.363 134.35 111.187 134.104C111.013 133.858 110.926 133.547 110.926 133.173V126.763ZM115.261 134.75V128.307H116.251V134.75H115.261ZM115.765 127.233C115.572 127.233 115.405 127.167 115.266 127.036C115.129 126.904 115.06 126.746 115.06 126.562C115.06 126.377 115.129 126.219 115.266 126.088C115.405 125.956 115.572 125.891 115.765 125.891C115.958 125.891 116.123 125.956 116.26 126.088C116.4 126.219 116.47 126.377 116.47 126.562C116.47 126.746 116.4 126.904 116.26 127.036C116.123 127.167 115.958 127.233 115.765 127.233ZM121.162 134.884C120.58 134.884 120.07 134.746 119.631 134.469C119.195 134.192 118.854 133.805 118.608 133.307C118.364 132.809 118.243 132.228 118.243 131.562C118.243 130.891 118.364 130.305 118.608 129.804C118.854 129.304 119.195 128.915 119.631 128.638C120.07 128.361 120.58 128.223 121.162 128.223C121.744 128.223 122.253 128.361 122.689 128.638C123.128 128.915 123.469 129.304 123.713 129.804C123.959 130.305 124.082 130.891 124.082 131.562C124.082 132.228 123.959 132.809 123.713 133.307C123.469 133.805 123.128 134.192 122.689 134.469C122.253 134.746 121.744 134.884 121.162 134.884ZM121.162 133.995C121.604 133.995 121.968 133.882 122.253 133.655C122.538 133.429 122.749 133.131 122.886 132.762C123.023 132.393 123.092 131.993 123.092 131.562C123.092 131.131 123.023 130.73 122.886 130.358C122.749 129.986 122.538 129.686 122.253 129.456C121.968 129.227 121.604 129.112 121.162 129.112C120.72 129.112 120.357 129.227 120.072 129.456C119.786 129.686 119.575 129.986 119.438 130.358C119.301 130.73 119.233 131.131 119.233 131.562C119.233 131.993 119.301 132.393 119.438 132.762C119.575 133.131 119.786 133.429 120.072 133.655C120.357 133.882 120.72 133.995 121.162 133.995ZM127.063 130.874V134.75H126.073V128.307H127.029V129.314H127.113C127.264 128.986 127.494 128.723 127.801 128.525C128.109 128.324 128.506 128.223 128.992 128.223C129.429 128.223 129.81 128.312 130.138 128.491C130.465 128.668 130.719 128.936 130.901 129.297C131.083 129.655 131.174 130.108 131.174 130.656V134.75H130.184V130.723C130.184 130.217 130.052 129.823 129.789 129.54C129.527 129.255 129.166 129.112 128.707 129.112C128.391 129.112 128.109 129.181 127.86 129.318C127.614 129.455 127.419 129.655 127.277 129.918C127.134 130.18 127.063 130.499 127.063 130.874Z" fill="white" fill-opacity="0.9"/>
</g>
<defs>
<filter id="filter0_bi_2415_242" x="-4" y="-4" width="188.67" height="187.59" filterUnits="userSpaceOnUse" color-interpolation-filters="sRGB">
<feFlood flood-opacity="0" result="BackgroundImageFix"/>
<feGaussianBlur in="BackgroundImageFix" stdDeviation="2"/>
<feComposite in2="SourceAlpha" operator="in" result="effect1_backgroundBlur_2415_242"/>
<feBlend mode="normal" in="SourceGraphic" in2="effect1_backgroundBlur_2415_242" result="shape"/>
<feColorMatrix in="SourceAlpha" type="matrix" values="0 0 0 0 0 0 0 0 0 0 0 0 0 0 0 0 0 0 127 0" result="hardAlpha"/>
<feOffset dy="1"/>
<feGaussianBlur stdDeviation="0.5"/>
<feComposite in2="hardAlpha" operator="arithmetic" k2="-1" k3="1"/>
<feColorMatrix type="matrix" values="0 0 0 0 1 0 0 0 0 1 0 0 0 0 1 0 0 0 0.1 0"/>
<feBlend mode="normal" in2="shape" result="effect2_innerShadow_2415_242"/>
</filter>
<radialGradient id="paint0_radial_2415_242" cx="0" cy="0" r="1" gradientUnits="userSpaceOnUse" gradientTransform="translate(90.335 25.861) scale(152.305 167.019)">
<stop stop-color="#ABABAB" stop-opacity="0.15"/>
<stop offset="1" stop-color="white" stop-opacity="0"/>
</radialGradient>
</defs>
</svg>
