<svg width="181" height="180" viewBox="0 0 181 180" fill="none" xmlns="http://www.w3.org/2000/svg">
<g filter="url(#filter0_bi_2415_255)">
<rect width="180.67" height="179.59" rx="12" fill="url(#paint0_radial_2415_255)"/>
<path d="M100.33 85L108.664 76.666M108.664 76.666L100.33 68.334M108.664 76.666H88.664L81.998 65H70.33" stroke="#E099FA" stroke-opacity="0.5" stroke-width="3.334" stroke-linecap="round" stroke-linejoin="round"/>
<path d="M108.664 53.334H88.664L81.998 65H70.33M108.664 53.334L100.33 61.666M108.664 53.334L100.33 45" stroke="#E099FA" stroke-width="3.334" stroke-linecap="round" stroke-linejoin="round"/>
<path d="M60.5884 130.75V122.159H63.4912C64.1623 122.159 64.7132 122.274 65.1439 122.503C65.5746 122.73 65.8934 123.041 66.1003 123.438C66.3072 123.836 66.4107 124.287 66.4107 124.793C66.4107 125.3 66.3072 125.748 66.1003 126.14C65.8934 126.531 65.576 126.839 65.1481 127.063C64.7202 127.284 64.1735 127.394 63.5079 127.394H61.1589V126.455H63.4744C63.933 126.455 64.3021 126.387 64.5818 126.253C64.8642 126.119 65.0684 125.929 65.1942 125.683C65.3229 125.434 65.3872 125.137 65.3872 124.793C65.3872 124.449 65.3229 124.149 65.1942 123.892C65.0656 123.634 64.86 123.436 64.5776 123.296C64.2952 123.153 63.9218 123.082 63.4576 123.082H61.6287V130.75H60.5884ZM64.6321 126.891L66.7463 130.75H65.5382L63.4576 126.891H64.6321ZM71.1222 130.884C70.5014 130.884 69.9658 130.747 69.5156 130.473C69.0682 130.196 68.7228 129.81 68.4795 129.315C68.239 128.818 68.1187 128.239 68.1187 127.579C68.1187 126.919 68.239 126.337 68.4795 125.834C68.7228 125.328 69.0612 124.933 69.4946 124.651C69.9309 124.366 70.4399 124.223 71.0215 124.223C71.3571 124.223 71.6885 124.279 72.0157 124.391C72.3429 124.503 72.6407 124.684 72.9092 124.936C73.1776 125.185 73.3916 125.515 73.551 125.926C73.7104 126.337 73.7901 126.843 73.7901 127.445V127.864H68.8235V127.008H72.7833C72.7833 126.645 72.7106 126.32 72.5652 126.035C72.4226 125.75 72.2184 125.525 71.9528 125.36C71.6899 125.195 71.3795 125.112 71.0215 125.112C70.6272 125.112 70.286 125.21 69.998 125.406C69.7128 125.599 69.4932 125.85 69.3394 126.161C69.1856 126.471 69.1087 126.804 69.1087 127.159V127.73C69.1087 128.216 69.1926 128.629 69.3604 128.967C69.531 129.303 69.7673 129.559 70.0693 129.735C70.3713 129.908 70.7223 129.995 71.1222 129.995C71.3823 129.995 71.6172 129.959 71.8269 129.886C72.0395 129.81 72.2226 129.699 72.3764 129.55C72.5302 129.399 72.6491 129.212 72.733 128.988L73.6894 129.257C73.5887 129.581 73.4195 129.866 73.1818 130.112C72.9441 130.356 72.6505 130.546 72.3009 130.683C71.9514 130.817 71.5585 130.884 71.1222 130.884ZM75.776 133.166V124.307H76.7324V125.33H76.8499C76.9226 125.218 77.0233 125.076 77.1519 124.902C77.2833 124.726 77.4707 124.57 77.714 124.433C77.9601 124.293 78.2929 124.223 78.7124 124.223C79.2549 124.223 79.7331 124.359 80.147 124.63C80.5609 124.901 80.8839 125.286 81.116 125.783C81.3481 126.281 81.4641 126.868 81.4641 127.545C81.4641 128.228 81.3481 128.819 81.116 129.32C80.8839 129.817 80.5623 130.203 80.1512 130.477C79.7401 130.749 79.2661 130.884 78.7291 130.884C78.3152 130.884 77.9839 130.816 77.735 130.679C77.4861 130.539 77.2945 130.381 77.1603 130.205C77.0261 130.026 76.9226 129.877 76.8499 129.76H76.766V133.166H75.776ZM76.7492 127.528C76.7492 128.015 76.8205 128.444 76.9631 128.816C77.1058 129.185 77.3141 129.475 77.5882 129.685C77.8622 129.891 78.1978 129.995 78.5949 129.995C79.0088 129.995 79.3542 129.886 79.631 129.668C79.9107 129.447 80.1204 129.15 80.2602 128.778C80.4028 128.404 80.4742 127.987 80.4742 127.528C80.4742 127.075 80.4042 126.667 80.2644 126.304C80.1274 125.937 79.9191 125.648 79.6394 125.435C79.3625 125.22 79.0144 125.112 78.5949 125.112C78.1922 125.112 77.8538 125.214 77.5798 125.418C77.3057 125.62 77.0988 125.902 76.9589 126.266C76.8191 126.627 76.7492 127.047 76.7492 127.528ZM87.5148 128.116V124.307H88.5048V130.75H87.5148V129.659H87.4477C87.2967 129.987 87.0618 130.265 86.743 130.494C86.4242 130.721 86.0215 130.834 85.5349 130.834C85.1322 130.834 84.7742 130.746 84.461 130.57C84.1478 130.391 83.9017 130.122 83.7227 129.764C83.5437 129.403 83.4543 128.949 83.4543 128.401V124.307H84.4442V128.334C84.4442 128.804 84.5757 129.178 84.8385 129.458C85.1042 129.738 85.4426 129.877 85.8537 129.877C86.0998 129.877 86.35 129.815 86.6045 129.689C86.8618 129.563 87.0771 129.37 87.2505 129.11C87.4267 128.85 87.5148 128.518 87.5148 128.116ZM93.6001 124.307V125.146H90.261V124.307H93.6001ZM91.2342 122.763H92.2242V128.904C92.2242 129.184 92.2647 129.394 92.3458 129.534C92.4297 129.671 92.536 129.763 92.6646 129.81C92.7961 129.855 92.9345 129.877 93.0799 129.877C93.189 129.877 93.2785 129.872 93.3484 129.861C93.4183 129.847 93.4742 129.836 93.5162 129.827L93.7175 130.716C93.6504 130.742 93.5567 130.767 93.4365 130.792C93.3162 130.82 93.1638 130.834 92.9792 130.834C92.6996 130.834 92.4255 130.774 92.1571 130.654C91.8914 130.533 91.6705 130.35 91.4943 130.104C91.3209 129.858 91.2342 129.547 91.2342 129.173V122.763ZM97.4653 130.901C97.057 130.901 96.6864 130.824 96.3536 130.67C96.0209 130.514 95.7566 130.289 95.5608 129.995C95.3651 129.699 95.2672 129.341 95.2672 128.921C95.2672 128.552 95.3399 128.253 95.4853 128.023C95.6307 127.791 95.8251 127.61 96.0684 127.478C96.3117 127.347 96.5802 127.249 96.8738 127.184C97.1702 127.117 97.4681 127.064 97.7673 127.025C98.1588 126.975 98.4762 126.937 98.7195 126.912C98.9656 126.884 99.1446 126.838 99.2564 126.773C99.3711 126.709 99.4284 126.597 99.4284 126.438V126.404C99.4284 125.99 99.3152 125.669 99.0886 125.439C98.8649 125.21 98.5251 125.095 98.0693 125.095C97.5967 125.095 97.2262 125.199 96.9577 125.406C96.6892 125.613 96.5005 125.834 96.3914 126.069L95.4518 125.733C95.6196 125.342 95.8433 125.037 96.1229 124.819C96.4054 124.598 96.713 124.444 97.0458 124.357C97.3814 124.268 97.7114 124.223 98.0358 124.223C98.2427 124.223 98.4804 124.248 98.7489 124.298C99.0201 124.346 99.2816 124.445 99.5333 124.596C99.7878 124.747 99.9989 124.975 100.167 125.28C100.334 125.585 100.418 125.993 100.418 126.505V130.75H99.4284V129.877H99.3781C99.311 130.017 99.1991 130.167 99.0425 130.326C98.8859 130.486 98.6776 130.621 98.4175 130.733C98.1574 130.845 97.84 130.901 97.4653 130.901ZM97.6163 130.012C98.0078 130.012 98.3378 129.935 98.6062 129.781C98.8775 129.627 99.0816 129.429 99.2187 129.185C99.3585 128.942 99.4284 128.686 99.4284 128.418V127.512C99.3865 127.562 99.2942 127.608 99.1516 127.65C99.0117 127.689 98.8495 127.724 98.665 127.755C98.4832 127.783 98.3056 127.808 98.1322 127.83C97.9616 127.85 97.8232 127.867 97.7169 127.881C97.4597 127.914 97.2192 127.969 96.9954 128.044C96.7745 128.117 96.5955 128.228 96.4585 128.376C96.3243 128.521 96.2572 128.72 96.2572 128.971C96.2572 129.315 96.3844 129.575 96.6389 129.752C96.8962 129.925 97.222 130.012 97.6163 130.012ZM105.507 124.307V125.146H102.168V124.307H105.507ZM103.142 122.763H104.132V128.904C104.132 129.184 104.172 129.394 104.253 129.534C104.337 129.671 104.443 129.763 104.572 129.81C104.703 129.855 104.842 129.877 104.987 129.877C105.096 129.877 105.186 129.872 105.256 129.861C105.326 129.847 105.382 129.836 105.424 129.827L105.625 130.716C105.558 130.742 105.464 130.767 105.344 130.792C105.224 130.82 105.071 130.834 104.887 130.834C104.607 130.834 104.333 130.774 104.064 130.654C103.799 130.533 103.578 130.35 103.402 130.104C103.228 129.858 103.142 129.547 103.142 129.173V122.763ZM107.477 130.75V124.307H108.467V130.75H107.477ZM107.98 123.233C107.787 123.233 107.621 123.167 107.481 123.036C107.344 122.904 107.275 122.746 107.275 122.562C107.275 122.377 107.344 122.219 107.481 122.088C107.621 121.956 107.787 121.891 107.98 121.891C108.173 121.891 108.338 121.956 108.475 122.088C108.615 122.219 108.685 122.377 108.685 122.562C108.685 122.746 108.615 122.904 108.475 123.036C108.338 123.167 108.173 123.233 107.98 123.233ZM113.377 130.884C112.796 130.884 112.285 130.746 111.846 130.469C111.41 130.192 111.069 129.805 110.823 129.307C110.579 128.809 110.458 128.228 110.458 127.562C110.458 126.891 110.579 126.305 110.823 125.804C111.069 125.304 111.41 124.915 111.846 124.638C112.285 124.361 112.796 124.223 113.377 124.223C113.959 124.223 114.468 124.361 114.904 124.638C115.343 124.915 115.684 125.304 115.928 125.804C116.174 126.305 116.297 126.891 116.297 127.562C116.297 128.228 116.174 128.809 115.928 129.307C115.684 129.805 115.343 130.192 114.904 130.469C114.468 130.746 113.959 130.884 113.377 130.884ZM113.377 129.995C113.819 129.995 114.183 129.882 114.468 129.655C114.753 129.429 114.964 129.131 115.101 128.762C115.238 128.393 115.307 127.993 115.307 127.562C115.307 127.131 115.238 126.73 115.101 126.358C114.964 125.986 114.753 125.686 114.468 125.456C114.183 125.227 113.819 125.112 113.377 125.112C112.935 125.112 112.572 125.227 112.287 125.456C112.001 125.686 111.79 125.986 111.653 126.358C111.516 126.73 111.448 127.131 111.448 127.562C111.448 127.993 111.516 128.393 111.653 128.762C111.79 129.131 112.001 129.429 112.287 129.655C112.572 129.882 112.935 129.995 113.377 129.995ZM119.278 126.874V130.75H118.288V124.307H119.244V125.314H119.328C119.479 124.986 119.709 124.723 120.016 124.525C120.324 124.324 120.721 124.223 121.208 124.223C121.644 124.223 122.026 124.312 122.353 124.491C122.68 124.668 122.934 124.936 123.116 125.297C123.298 125.655 123.389 126.108 123.389 126.656V130.75H122.399V126.723C122.399 126.217 122.267 125.823 122.005 125.54C121.742 125.255 121.381 125.112 120.922 125.112C120.606 125.112 120.324 125.181 120.075 125.318C119.829 125.455 119.635 125.655 119.492 125.918C119.349 126.18 119.278 126.499 119.278 126.874ZM75.8765 141.307C75.8262 140.882 75.622 140.552 75.2641 140.317C74.9061 140.082 74.4671 139.964 73.9469 139.964C73.5666 139.964 73.2338 140.026 72.9486 140.149C72.6661 140.272 72.4452 140.441 72.2858 140.657C72.1292 140.872 72.0509 141.117 72.0509 141.391C72.0509 141.62 72.1054 141.817 72.2145 141.982C72.3263 142.144 72.469 142.28 72.6424 142.389C72.8157 142.495 72.9975 142.583 73.1877 142.653C73.3778 142.72 73.5526 142.775 73.712 142.817L74.5845 143.052C74.8083 143.111 75.0572 143.192 75.3312 143.295C75.6081 143.399 75.8723 143.54 76.124 143.719C76.3785 143.895 76.5882 144.122 76.7532 144.398C76.9182 144.675 77.0007 145.015 77.0007 145.418C77.0007 145.882 76.8791 146.301 76.6358 146.676C76.3953 147.051 76.0429 147.349 75.5787 147.57C75.1173 147.791 74.5566 147.901 73.8966 147.901C73.2814 147.901 72.7486 147.802 72.2984 147.603C71.8509 147.405 71.4986 147.128 71.2413 146.773C70.9868 146.417 70.8428 146.005 70.8092 145.535H71.8831C71.9111 145.86 72.0201 146.128 72.2103 146.341C72.4033 146.55 72.6466 146.707 72.9402 146.81C73.2366 146.911 73.5554 146.961 73.8966 146.961C74.2937 146.961 74.6503 146.897 74.9663 146.768C75.2823 146.637 75.5326 146.455 75.7171 146.223C75.9017 145.988 75.994 145.714 75.994 145.401C75.994 145.116 75.9143 144.884 75.7549 144.705C75.5955 144.526 75.3857 144.38 75.1257 144.268C74.8656 144.156 74.5845 144.059 74.2825 143.975L73.2254 143.673C72.5543 143.48 72.0229 143.204 71.6314 142.846C71.2399 142.488 71.0441 142.02 71.0441 141.441C71.0441 140.96 71.1742 140.541 71.4343 140.183C71.6971 139.822 72.0495 139.542 72.4913 139.344C72.936 139.142 73.4324 139.042 73.9805 139.042C74.5342 139.042 75.0264 139.141 75.4571 139.339C75.8877 139.535 76.2289 139.804 76.4806 140.145C76.7351 140.486 76.8693 140.873 76.8833 141.307H75.8765ZM79.6945 150.166C79.5267 150.166 79.3771 150.152 79.2457 150.124C79.1142 150.099 79.0234 150.074 78.973 150.049L79.2247 149.176C79.4652 149.238 79.6777 149.26 79.8623 149.243C80.0469 149.227 80.2105 149.144 80.3531 148.996C80.4985 148.85 80.6314 148.614 80.7516 148.287L80.9362 147.784L78.5535 141.307H79.6274L81.406 146.441H81.4731L83.2517 141.307H84.3256L81.5906 148.69C81.4675 149.022 81.3151 149.298 81.1333 149.516C80.9516 149.737 80.7404 149.901 80.4999 150.007C80.2622 150.113 79.9938 150.166 79.6945 150.166ZM90.6762 142.75L89.7869 143.002C89.7309 142.853 89.6484 142.709 89.5394 142.569C89.4331 142.427 89.2877 142.309 89.1031 142.217C88.9185 142.125 88.6822 142.079 88.3942 142.079C87.9999 142.079 87.6713 142.17 87.4084 142.351C87.1483 142.53 87.0183 142.758 87.0183 143.035C87.0183 143.281 87.1078 143.476 87.2868 143.618C87.4658 143.761 87.7454 143.88 88.1257 143.975L89.0821 144.21C89.6582 144.349 90.0875 144.563 90.3699 144.851C90.6524 145.137 90.7936 145.504 90.7936 145.955C90.7936 146.324 90.6873 146.654 90.4748 146.945C90.2651 147.235 89.9714 147.465 89.5939 147.633C89.2164 147.8 88.7773 147.884 88.2767 147.884C87.6196 147.884 87.0756 147.742 86.645 147.456C86.2143 147.171 85.9417 146.754 85.827 146.206L86.7666 145.971C86.8561 146.318 87.0253 146.578 87.2742 146.752C87.5259 146.925 87.8545 147.012 88.26 147.012C88.7214 147.012 89.0877 146.914 89.359 146.718C89.6331 146.52 89.7701 146.282 89.7701 146.005C89.7701 145.781 89.6918 145.594 89.5352 145.443C89.3786 145.289 89.1381 145.174 88.8137 145.099L87.7398 144.847C87.1497 144.707 86.7163 144.491 86.4394 144.197C86.1654 143.901 86.0283 143.53 86.0283 143.085C86.0283 142.722 86.1304 142.4 86.3346 142.121C86.5415 141.841 86.8226 141.621 87.1777 141.462C87.5357 141.303 87.9412 141.223 88.3942 141.223C89.0318 141.223 89.5324 141.363 89.8959 141.642C90.2623 141.922 90.5223 142.291 90.6762 142.75ZM95.5659 141.307V142.146H92.2269V141.307H95.5659ZM93.2001 139.763H94.19V145.904C94.19 146.184 94.2306 146.394 94.3117 146.534C94.3956 146.671 94.5018 146.763 94.6305 146.81C94.7619 146.855 94.9003 146.877 95.0458 146.877C95.1548 146.877 95.2443 146.872 95.3142 146.861C95.3841 146.847 95.4401 146.836 95.482 146.827L95.6834 147.716C95.6163 147.742 95.5226 147.767 95.4023 147.792C95.2821 147.82 95.1297 147.834 94.9451 147.834C94.6654 147.834 94.3914 147.774 94.1229 147.654C93.8572 147.533 93.6363 147.35 93.4601 147.104C93.2868 146.858 93.2001 146.547 93.2001 146.173V139.763ZM100.167 147.884C99.5465 147.884 99.0109 147.747 98.5607 147.473C98.1133 147.196 97.7679 146.81 97.5246 146.315C97.2841 145.818 97.1638 145.239 97.1638 144.579C97.1638 143.919 97.2841 143.337 97.5246 142.834C97.7679 142.328 98.1063 141.933 98.5397 141.651C98.976 141.366 99.4849 141.223 100.067 141.223C100.402 141.223 100.734 141.279 101.061 141.391C101.388 141.503 101.686 141.684 101.954 141.936C102.223 142.185 102.437 142.515 102.596 142.926C102.755 143.337 102.835 143.843 102.835 144.445V144.864H97.8686V144.008H101.828C101.828 143.645 101.756 143.32 101.61 143.035C101.468 142.75 101.264 142.525 100.998 142.36C100.735 142.195 100.425 142.112 100.067 142.112C99.6723 142.112 99.3311 142.21 99.0431 142.406C98.7578 142.599 98.5383 142.85 98.3845 143.161C98.2307 143.471 98.1538 143.804 98.1538 144.159V144.73C98.1538 145.216 98.2377 145.629 98.4055 145.967C98.5761 146.303 98.8124 146.559 99.1144 146.735C99.4164 146.908 99.7674 146.995 100.167 146.995C100.427 146.995 100.662 146.959 100.872 146.886C101.085 146.81 101.268 146.699 101.422 146.55C101.575 146.399 101.694 146.212 101.778 145.988L102.735 146.257C102.634 146.581 102.465 146.866 102.227 147.112C101.989 147.356 101.696 147.546 101.346 147.683C100.996 147.817 100.604 147.884 100.167 147.884ZM104.821 147.75V141.307H105.778V142.314H105.861C105.996 141.97 106.212 141.703 106.512 141.512C106.811 141.319 107.17 141.223 107.59 141.223C108.015 141.223 108.368 141.319 108.651 141.512C108.936 141.703 109.159 141.97 109.318 142.314H109.385C109.55 141.981 109.798 141.717 110.127 141.521C110.457 141.322 110.853 141.223 111.315 141.223C111.891 141.223 112.362 141.403 112.728 141.764C113.095 142.122 113.278 142.68 113.278 143.438V147.75H112.288V143.438C112.288 142.962 112.158 142.623 111.898 142.418C111.638 142.214 111.331 142.112 110.979 142.112C110.526 142.112 110.175 142.249 109.926 142.523C109.677 142.795 109.553 143.139 109.553 143.555V147.75H108.546V143.337C108.546 142.971 108.427 142.676 108.19 142.452C107.952 142.225 107.646 142.112 107.271 142.112C107.014 142.112 106.773 142.181 106.549 142.318C106.328 142.455 106.149 142.645 106.012 142.888C105.878 143.129 105.811 143.407 105.811 143.723V147.75H104.821Z" fill="white" fill-opacity="0.9"/>
</g>
<defs>
<filter id="filter0_bi_2415_255" x="-4" y="-4" width="188.67" height="187.59" filterUnits="userSpaceOnUse" color-interpolation-filters="sRGB">
<feFlood flood-opacity="0" result="BackgroundImageFix"/>
<feGaussianBlur in="BackgroundImageFix" stdDeviation="2"/>
<feComposite in2="SourceAlpha" operator="in" result="effect1_backgroundBlur_2415_255"/>
<feBlend mode="normal" in="SourceGraphic" in2="effect1_backgroundBlur_2415_255" result="shape"/>
<feColorMatrix in="SourceAlpha" type="matrix" values="0 0 0 0 0 0 0 0 0 0 0 0 0 0 0 0 0 0 127 0" result="hardAlpha"/>
<feOffset dy="1"/>
<feGaussianBlur stdDeviation="0.5"/>
<feComposite in2="hardAlpha" operator="arithmetic" k2="-1" k3="1"/>
<feColorMatrix type="matrix" values="0 0 0 0 1 0 0 0 0 1 0 0 0 0 1 0 0 0 0.1 0"/>
<feBlend mode="normal" in2="shape" result="effect2_innerShadow_2415_255"/>
</filter>
<radialGradient id="paint0_radial_2415_255" cx="0" cy="0" r="1" gradientUnits="userSpaceOnUse" gradientTransform="translate(90.335 25.861) scale(152.305 167.019)">
<stop stop-color="#ABABAB" stop-opacity="0.15"/>
<stop offset="1" stop-color="white" stop-opacity="0"/>
</radialGradient>
</defs>
</svg>
