<svg width="24" height="23" viewBox="0 0 24 23" fill="none" xmlns="http://www.w3.org/2000/svg">
<path d="M3.38174 9.07499C2.50835 8.26565 1.90789 7.2135 1.90789 5.97251V5.83762C1.98977 3.73333 3.73656 2.00674 5.86547 1.95278H19.485C19.8398 1.97976 20.1128 2.22256 20.1128 2.57328V13.985C20.413 14.0389 20.5768 14.0929 20.877 14.1738C21.1226 14.2548 21.4502 14.4436 21.4502 14.4436V2.57328C21.4229 1.49416 20.5495 0.630859 19.4577 0.630859H5.86547C2.91775 0.684815 0.570496 3.05888 0.570496 5.97251C0.570496 7.67213 1.36201 9.12894 2.61752 10.1271C2.6994 10.2081 2.78128 10.289 3.02693 10.289C3.43633 10.289 3.70927 9.96526 3.68197 9.64153C3.68197 9.34477 3.5728 9.23686 3.38174 9.07499Z" fill="white"/>
<path d="M19.1302 14.7403H8.45835C7.74872 14.7403 7.17555 15.3068 7.17555 16.0352V17.546C7.20285 18.2474 7.80331 18.841 8.51294 18.841H9.30446V17.546H8.51294V16.0622C8.51294 16.0622 8.704 16.0622 8.94964 16.0622C10.287 16.0622 11.2969 17.3032 11.2969 18.6251C11.2969 19.8122 10.2051 21.296 8.40377 21.1881C6.79344 21.0801 5.92004 19.6773 5.92004 18.6251V5.75661C5.92004 5.19007 5.42876 4.70447 4.85559 4.70447H3.79114V6.02639H4.58265V18.6521C4.52807 21.215 6.43862 22.51 8.40377 22.51L19.1575 22.537C21.3137 22.537 23.0878 20.8104 23.0878 18.6521C23.0605 16.4669 21.3137 14.7403 19.1302 14.7403ZM21.7231 18.7061C21.6685 20.082 20.5222 21.1881 19.1302 21.1881L11.6517 21.1611C12.2522 20.4866 12.607 19.5963 12.607 18.6251C12.607 17.1144 11.7063 16.0622 11.7063 16.0622H19.1575C20.5767 16.0622 21.7504 17.2223 21.7504 18.6251L21.7231 18.7061Z" fill="white"/>
<path d="M16.2643 6.24233H8.21271V4.92041H16.2643C16.6192 4.92041 16.9194 5.21717 16.9194 5.56788C16.9194 5.94558 16.6465 6.24233 16.2643 6.24233Z" fill="white"/>
<path d="M16.2643 12.4473H8.21271V11.1254H16.2643C16.6192 11.1254 16.9194 11.4221 16.9194 11.7728C16.9194 12.1505 16.6465 12.4473 16.2643 12.4473Z" fill="white"/>
<path d="M17.6836 9.34475H8.21271V8.02283H17.6836C18.0384 8.02283 18.3387 8.31959 18.3387 8.6703C18.3387 9.04799 18.0384 9.34475 17.6836 9.34475Z" fill="white"/>
</svg>
