<svg width="74" height="20" viewBox="0 0 74 20" fill="none" xmlns="http://www.w3.org/2000/svg">
<g clip-path="url(#clip0_2324_236)">
<path d="M28.1429 5.52407C26.7707 5.52407 25.6979 6.31322 25.6979 7.44762C25.6979 8.58203 26.5961 8.95194 27.7188 9.17389L29.1409 9.39583C31.0121 9.69177 32.3095 10.5549 32.3095 12.5771C32.3095 14.6979 30.563 15.931 28.3176 15.931C26.2967 15.931 24.4005 14.7473 24.1261 12.4538C24.1011 12.2565 24.2508 12.0839 24.4504 12.0839H25.2987C25.4484 12.0839 25.5981 12.2072 25.623 12.3551C25.7977 13.9828 27.0701 14.6239 28.3176 14.6239C29.6898 14.6239 30.7626 13.9581 30.7626 12.6018C30.7626 11.3934 29.8894 10.9741 28.7417 10.7522L27.3445 10.5056C25.3985 10.185 24.176 9.24787 24.176 7.49694C24.176 5.45009 25.9723 4.19238 28.1429 4.19238C29.8644 4.19238 31.7855 5.15416 32.1598 7.44762C32.1847 7.64491 32.035 7.81754 31.8354 7.81754H30.9373C30.7876 7.81754 30.6379 7.69423 30.6129 7.54627C30.3634 6.09127 29.2407 5.52407 28.1429 5.52407Z" fill="white"/>
<path d="M37.8982 6.78174C39.9939 6.78174 41.4659 7.89148 41.9899 9.69173C42.0398 9.88901 41.8901 10.111 41.6655 10.111H40.6925C40.5428 10.111 40.443 10.0123 40.3931 9.88901C40.0189 8.85325 39.1955 8.28605 37.8982 8.28605C36.1517 8.28605 35.1787 9.69173 35.1787 11.3933C35.1787 13.0703 36.1517 14.5006 37.8982 14.5006C39.1706 14.5006 40.0189 13.9087 40.3931 12.8976C40.443 12.7743 40.5678 12.6757 40.6925 12.6757H41.6655C41.8901 12.6757 42.0398 12.873 41.9649 13.0949C41.416 14.9692 39.969 16.0049 37.8732 16.0049C35.1787 16.0049 33.4821 13.9581 33.4821 11.418C33.5071 8.85325 35.2286 6.78174 37.8982 6.78174Z" fill="white"/>
<path d="M43.5866 14.476H45.6824V8.68072H43.8112C43.6365 8.68072 43.4868 8.53276 43.4868 8.36013V7.54632C43.4868 7.3737 43.6365 7.22573 43.8112 7.22573H46.356C46.8799 7.22573 47.329 7.66963 47.329 8.18751V8.40945C47.8031 7.29971 48.801 7.02844 50.3479 7.02844C50.9467 7.02844 51.3459 7.12709 51.5704 7.20107C51.6952 7.25039 51.77 7.3737 51.77 7.497V8.38479C51.77 8.60674 51.5704 8.75471 51.3459 8.68072C51.0714 8.58208 50.6723 8.5081 50.1733 8.5081C48.5266 8.5081 47.354 9.61784 47.354 11.5661V14.476H50.0485C50.2232 14.476 50.3729 14.624 50.3729 14.7966V15.6104C50.3729 15.7831 50.2232 15.931 50.0485 15.931H43.5866C43.412 15.931 43.2623 15.7831 43.2623 15.6104V14.7966C43.2623 14.624 43.412 14.476 43.5866 14.476Z" fill="white"/>
<path d="M53.0175 11.344C53.0175 8.8286 54.7141 6.75708 57.4585 6.75708C60.203 6.75708 61.8995 8.80394 61.8995 11.344C61.8995 13.8594 60.203 15.9309 57.4585 15.9309C54.6891 15.9309 53.0175 13.8841 53.0175 11.344ZM57.4336 14.4513C59.205 14.4513 60.203 13.0456 60.203 11.344C60.203 9.66707 59.18 8.23674 57.4336 8.23674C55.6622 8.23674 54.6642 9.64241 54.6642 11.344C54.6642 13.0456 55.6871 14.4513 57.4336 14.4513Z" fill="white"/>
<path d="M65.5421 14.55H68.087C68.2616 14.55 68.4113 14.6979 68.4113 14.8705V15.635C68.4113 15.8077 68.2616 15.9556 68.087 15.9556H64.2946C64.12 15.9556 63.9703 15.8077 63.9703 15.635V5.72135H62.6979C62.5232 5.72135 62.3735 5.57338 62.3735 5.40075V4.63627C62.3735 4.46364 62.5232 4.31567 62.6979 4.31567H64.5691C65.093 4.31567 65.5421 4.75957 65.5421 5.27745V14.55Z" fill="white"/>
<path d="M71.1558 14.55H73.7006C73.8752 14.55 74.0249 14.6979 74.0249 14.8705V15.635C74.0249 15.8077 73.8752 15.9556 73.7006 15.9556H69.9083C69.7336 15.9556 69.5839 15.8077 69.5839 15.635V5.72135H68.3115C68.1369 5.72135 67.9872 5.57338 67.9872 5.40075V4.63627C67.9872 4.46364 68.1369 4.31567 68.3115 4.31567H70.1827C70.7067 4.31567 71.1558 4.75957 71.1558 5.27745V14.55Z" fill="white"/>
<path d="M2.56979 9.68695C1.77141 9.04603 1.22252 8.21283 1.22252 7.23008V7.12326C1.29737 5.45687 2.89413 4.08957 4.84019 4.04684H17.29C17.6143 4.0682 17.8638 4.26048 17.8638 4.53821V13.5752C18.1382 13.6179 18.2879 13.6607 18.5624 13.7248C18.7869 13.7889 19.0863 13.9384 19.0863 13.9384V4.53821C19.0614 3.68365 18.263 3 17.265 3H4.84019C2.14565 3.04273 0 4.92277 0 7.23008C0 8.57602 0.723533 9.72968 1.87121 10.5202C1.94606 10.5842 2.0209 10.6483 2.24545 10.6483C2.61969 10.6483 2.86918 10.392 2.84423 10.1356C2.84423 9.90059 2.74444 9.81514 2.56979 9.68695Z" fill="white"/>
<path d="M16.9656 14.1734H7.21038C6.5617 14.1734 6.03776 14.622 6.03776 15.1989V16.3952C6.06271 16.9507 6.6116 17.4207 7.26028 17.4207H7.98382V16.3952H7.26028V15.2202C7.26028 15.2202 7.43493 15.2202 7.65947 15.2202C8.88199 15.2202 9.80512 16.203 9.80512 17.2498C9.80512 18.1898 8.80715 19.3649 7.16048 19.2794C5.68847 19.1939 4.89009 18.083 4.89009 17.2498V7.05915C4.89009 6.61051 4.441 6.22595 3.91706 6.22595H2.94403V7.27279H3.66756V17.2712C3.61767 19.3008 5.36413 20.3262 7.16048 20.3262L16.9906 20.3476C18.9616 20.3476 20.5833 18.9803 20.5833 17.2712C20.5583 15.5407 18.9616 14.1734 16.9656 14.1734ZM19.3358 17.3139C19.2859 18.4035 18.238 19.2794 16.9656 19.2794L10.1295 19.258C10.6784 18.7239 11.0027 18.0189 11.0027 17.2498C11.0027 16.0534 10.1794 15.2202 10.1794 15.2202H16.9906C18.2879 15.2202 19.3608 16.1389 19.3608 17.2498L19.3358 17.3139Z" fill="white"/>
<path d="M14.3459 7.44381H6.98584V6.39697H14.3459C14.6703 6.39697 14.9447 6.63198 14.9447 6.90971C14.9447 7.20881 14.6952 7.44381 14.3459 7.44381Z" fill="white"/>
<path d="M14.3459 12.3575H6.98584V11.3107H14.3459C14.6703 11.3107 14.9447 11.5457 14.9447 11.8234C14.9447 12.1225 14.6952 12.3575 14.3459 12.3575Z" fill="white"/>
<path d="M15.6433 9.9006H6.98584V8.85376H15.6433C15.9676 8.85376 16.2421 9.08876 16.2421 9.3665C16.2421 9.66559 15.9676 9.9006 15.6433 9.9006Z" fill="white"/>
</g>
<defs>
<clipPath id="clip0_2324_236">
<rect width="74" height="20" fill="white"/>
</clipPath>
</defs>
</svg>
